<svg version="1.1" xmlns="http://www.w3.org/2000/svg" width="1800" height="630"><defs><clipPath id="dIcPTNTxTyOD"><path fill="none" stroke="none" d="M 10.5 27.5 L 590.5 27.5 L 590.5 590.5 L 10.5 590.5 L 10.5 27.5"/></clipPath><clipPath id="VFxiwJnGWOhg"><path fill="none" stroke="none" d="M 10.5 27.5 L 590.5 27.5 L 590.5 590.5 L 10.5 590.5 L 10.5 27.5"/></clipPath><clipPath id="NPTwOfvSqSUZ"><path fill="none" stroke="none" d="M 10.5 27.5 L 590.5 27.5 L 590.5 590.5 L 10.5 590.5 L 10.5 27.5"/></clipPath><clipPath id="dvsTnokFBuoZ"><path fill="none" stroke="none" d="M 10.5 27.5 L 590.5 27.5 L 590.5 590.5 L 10.5 590.5 L 10.5 27.5"/></clipPath><clipPath id="MplxDFSaoqpm"><path fill="none" stroke="none" d="M 10.5 27.5 L 590.5 27.5 L 590.5 590.5 L 10.5 590.5 L 10.5 27.5"/></clipPath><clipPath id="iZEdgnVGpJEF"><path fill="none" stroke="none" d="M 10.5 27.5 L 590.5 27.5 L 590.5 590.5 L 10.5 590.5 L 10.5 27.5"/></clipPath><clipPath id="WfqcHhGxNkXc"><path fill="none" stroke="none" d="M 10.5 27.5 L 590.5 27.5 L 590.5 590.5 L 10.5 590.5 L 10.5 27.5"/></clipPath><clipPath id="CbgbRvrTMIxV"><path fill="none" stroke="none" d="M 10.5 27.5 L 590.5 27.5 L 590.5 590.5 L 10.5 590.5 L 10.5 27.5"/></clipPath><clipPath id="MRRpcgJrPkeJ"><path fill="none" stroke="none" d="M 10.5 27.5 L 590.5 27.5 L 590.5 590.5 L 10.5 590.5 L 10.5 27.5"/></clipPath><clipPath id="vtTezHJxtEVB"><path fill="none" stroke="none" d="M 10.5 27.5 L 590.5 27.5 L 590.5 590.5 L 10.5 590.5 L 10.5 27.5"/></clipPath><clipPath id="xDTcrqwOSfQP"><path fill="none" stroke="none" d="M 10.5 27.5 L 590.5 27.5 L 590.5 590.5 L 10.5 590.5 L 10.5 27.5"/></clipPath><clipPath id="cuGSCgxBREsP"><path fill="none" stroke="none" d="M 10.5 27.5 L 590.5 27.5 L 590.5 590.5 L 10.5 590.5 L 10.5 27.5"/></clipPath><clipPath id="GfemXlRmkOhX"><path fill="none" stroke="none" d="M 10.5 27.5 L 590.5 27.5 L 590.5 590.5 L 10.5 590.5 L 10.5 27.5"/></clipPath><clipPath id="kKWBPypPvhUP"><path fill="none" stroke="none" d="M 10.5 27.5 L 590.5 27.5 L 590.5 590.5 L 10.5 590.5 L 10.5 27.5"/></clipPath><clipPath id="zhVtFQNbsyLI"><path fill="none" stroke="none" d="M 10.5 27.5 L 590.5 27.5 L 590.5 590.5 L 10.5 590.5 L 10.5 27.5"/></clipPath><clipPath id="AlrlXDDJhGcI"><path fill="none" stroke="none" d="M 10.5 27.5 L 590.5 27.5 L 590.5 590.5 L 10.5 590.5 L 10.5 27.5"/></clipPath><clipPath id="PeVEobqyroKf"><path fill="none" stroke="none" d="M 10.5 27.5 L 590.5 27.5 L 590.5 590.5 L 10.5 590.5 L 10.5 27.5"/></clipPath><clipPath id="STsENkzSQDoA"><path fill="none" stroke="none" d="M 10.5 27.5 L 590.5 27.5 L 590.5 590.5 L 10.5 590.5 L 10.5 27.5"/></clipPath></defs><g transform="matrix(1, 0, 0, 1, 0, 30)"><path fill="rgb(255,255,255)" stroke="none" paint-order="stroke" d="M 0.5 0.5 L 600.5 0.5 L 600.5 600.5 L 0.5 600.5 L 0.5 0.5" fill-opacity="1"/><rect fill="#FFFFFF" stroke="none" x="10" y="27" width="580" height="563" transform="matrix(1, 0, 0, 1, 0.5, 0.5)"/><path fill="rgb(255,255,255)" stroke="none" paint-order="stroke" d="M 10.5 27.5 L 590.5 27.5 L 590.5 590.5 L 10.5 590.5 L 10.5 27.5" fill-opacity="1"/><path fill="none" stroke="rgb(51,0,0)" paint-order="fill" d="M 507.6428527832031 309 L 506.1469421386719 284.87890625 L 501.68084716796875 261.1062316894531 L 494.3090515136719 238.0252685546875 L 484.13800048828125 215.96942138671875 L 471.3146667480469 195.25723266601562 L 456.0242004394531 176.18785095214844 L 438.4874572753906 159.03671264648438 L 418.957763671875 144.051513671875 L 397.7171325683594 131.44869995117188 L 375.0723876953125 121.4103012084961 L 351.3505554199219 114.08130645751953 L 326.8943176269531 109.56755828857422 L 302.05682373046875 107.93424987792969 L 277.1968688964844 109.2049789428711 L 252.6734619140625 113.36139678955078 L 228.84083557128906 120.34345245361328 L 206.04319763183594 130.05032348632812 L 184.60983276367188 142.341796875 L 164.85028076171875 157.0403594970703" stroke-opacity="1" stroke-linejoin="bevel" stroke-miterlimit="10" stroke-width="10" stroke-dasharray="" clip-path="url(#NPTwOfvSqSUZ)"/><path fill="none" stroke="rgb(0,103,167)" paint-order="fill" d="M 164.85028076171875 157.0403594970703 L 147.04994201660156 173.93370056152344 L 131.46592712402344 192.77783203125 L 118.32329559326172 213.3005828857422 L 107.81188201904297 235.20553588867188 L 100.08351135253906 258.17633056640625 L 95.24978637695312 281.88116455078125 L 93.38054656982422 305.9776916503906 L 94.50276947021484 330.1178894042969 L 98.60025024414062 353.95306396484375 L 105.61381530761719 377.1389465332031 L 115.44216918945312 399.3406982421875 L 127.94334411621094 420.2376708984375 L 142.93679809570312 439.5279846191406 L 160.20596313476562 456.93304443359375 L 179.5014190673828 472.2015075683594 L 200.54449462890625 485.11279296875 L 223.03125 495.48046875 L 246.6368865966797 503.1547546386719 L 271.0205078125 508.0248107910156" stroke-opacity="1" stroke-linejoin="bevel" stroke-miterlimit="10" stroke-width="10" stroke-dasharray="" clip-path="url(#NPTwOfvSqSUZ)"/><path fill="none" stroke="rgb(225,0,209)" paint-order="fill" d="M 271.0205078125 508.0248107910156 L 289.6071472167969 509.793212890625 L 308.2823486328125 509.9294738769531 L 326.8943176269531 508.43243408203125 L 345.29168701171875 505.3143005371094 L 363.32501220703125 500.6004333496094 L 380.8476257324219 494.3291015625 L 397.7171325683594 486.5513000488281 L 413.7964172363281 477.33026123046875 L 428.9547424316406 466.7409362792969 L 443.06890869140625 454.869384765625 L 456.0242004394531 441.8121337890625 L 467.7153015136719 427.6753234863281 L 478.04718017578125 412.5738220214844 L 486.93585205078125 396.63043212890625 L 494.3090515136719 379.9747314453125 L 500.1068420410156 362.7420959472656 L 504.2821350097656 345.0726013183594 L 506.80096435546875 327.10992431640625 L 507.6428527832031 309" stroke-opacity="1" stroke-linejoin="bevel" stroke-miterlimit="10" stroke-width="10" stroke-dasharray="" clip-path="url(#NPTwOfvSqSUZ)"/><path fill="none" stroke="rgb(51,0,0)" paint-order="fill" d="M 164.85028076171875 157.0403594970703 L 168.9536590576172 161.57601928710938 L 172.957763671875 165.87997436523438 L 176.86111450195312 169.95306396484375 L 180.66224670410156 173.79617309570312 L 184.3596954345703 177.41017150878906 L 187.95201110839844 180.7959442138672 L 191.437744140625 183.95433044433594 L 194.8153839111328 186.88624572753906 L 198.08352661132812 189.59251403808594 L 201.24066162109375 192.0740509033203 L 204.2853546142578 194.3317108154297 L 207.21612548828125 196.36634826660156 L 210.03152465820312 198.17886352539062 L 212.73008728027344 199.77012634277344 L 215.31033325195312 201.14097595214844 L 217.7708282470703 202.29232788085938 L 220.11009216308594 203.2250213623047 L 222.32667541503906 203.93994140625 L 224.41909790039062 204.43797302246094 L 226.3859100341797 204.71995544433594 L 228.22564697265625 204.7867889404297 L 229.9368438720703 204.63934326171875 L 231.51803588867188 204.27847290039062 L 232.96775817871094 203.70506286621094 L 234.28456115722656 202.91998291015625 L 235.4669647216797 201.92410278320312 L 236.51353454589844 200.7183074951172 L 237.4227752685547 199.30345153808594 L 238.1932373046875 197.68040466308594 L 238.82345581054688 195.8500518798828 L 239.31198120117188 193.81326293945312 L 239.6573486328125 191.57090759277344 L 239.8580780029297 189.12387084960938 L 239.91270446777344 186.47299194335938 L 239.81979370117188 183.61917114257812 L 239.57786560058594 180.5632781982422 L 239.18545532226562 177.30616760253906 L 238.64111328125 173.84872436523438 L 237.943359375 170.1918182373047 L 237.0907440185547 166.33633422851562 L 236.08180236816406 162.2831268310547 L 234.91505432128906 158.03306579589844 L 233.5890655517578 153.5870361328125 L 232.10235595703125 148.94589233398438 L 230.45347595214844 144.11053466796875 L 228.6409454345703 139.08181762695312 L 226.66331481933594 133.860595703125 L 224.5191192626953 128.4477767944336 L 222.20689392089844 122.8442153930664 M 287.830810546875 108.30500030517578 L 288.25225830078125 114.32747650146484 L 288.7398681640625 120.1073226928711 L 289.2918701171875 125.64437866210938 L 289.9066162109375 130.9384765625 L 290.5823669433594 135.98944091796875 L 291.3173828125 140.797119140625 L 292.1100158691406 145.36131286621094 L 292.95855712890625 149.68186950683594 L 293.8612365722656 153.7586212158203 L 294.81640625 157.59140014648438 L 295.82232666015625 161.18002319335938 L 296.8773193359375 164.52432250976562 L 297.9796447753906 167.6241455078125 L 299.12762451171875 170.47930908203125 L 300.31951904296875 173.0896453857422 L 301.55364990234375 175.45498657226562 L 302.82830810546875 177.57516479492188 L 304.1417541503906 179.4499969482422 L 305.4923095703125 181.07933044433594 L 306.8782653808594 182.46299743652344 L 308.29791259765625 183.60079956054688 L 309.74951171875 184.4925994873047 L 311.2314147949219 185.1382293701172 L 312.74188232421875 185.53749084472656 L 314.2791748046875 185.6902313232422 L 315.8416442871094 185.5962677001953 L 317.42755126953125 185.25546264648438 L 319.0351867675781 184.6676025390625 L 320.6628723144531 183.8325653076172 L 322.3088684082031 182.75013732910156 L 323.9714660644531 181.42018127441406 L 325.6489562988281 179.84251403808594 L 327.33966064453125 178.01695251464844 L 329.0418701171875 175.943359375 L 330.75384521484375 173.6215362548828 L 332.4739074707031 171.0513153076172 L 334.2003173828125 168.2325439453125 L 335.931396484375 165.16505432128906 L 337.6654357910156 161.84866333007812 L 339.40069580078125 158.28318786621094 L 341.1355285644531 154.46849060058594 L 342.8681640625 150.40438842773438 L 344.596923828125 146.0906982421875 L 346.32012939453125 141.5272674560547 L 348.0360107421875 136.7139129638672 L 349.7428894042969 131.65048217773438 L 351.4390869140625 126.33679962158203 L 353.1228332519531 120.7726821899414 L 354.79248046875 114.95797729492188" stroke-opacity="1" stroke-linejoin="bevel" stroke-miterlimit="10" stroke-dasharray="" clip-path="url(#dvsTnokFBuoZ)"/><path fill="none" stroke="rgb(225,0,209)" paint-order="fill" d="M 507.6428527832031 309 L 501.3742980957031 308.8964538574219 L 495.25244140625 308.5885925292969 L 489.2795715332031 308.0807189941406 L 483.45806884765625 307.3771057128906 L 477.7902526855469 306.48193359375 L 472.2784729003906 305.3995361328125 L 466.9250183105469 304.1341247558594 L 461.7322692871094 302.6899719238281 L 456.70257568359375 301.0713195800781 L 451.8382263183594 299.2824401855469 L 447.1416015625 297.32757568359375 L 442.614990234375 295.21099853515625 L 438.2607727050781 292.93695068359375 L 434.0812683105469 290.50970458984375 L 430.0788269042969 287.9334716796875 L 426.2557373046875 285.2125549316406 L 422.6144104003906 282.3511962890625 L 419.1571044921875 279.3536376953125 L 415.88623046875 276.22418212890625 L 412.8040466308594 272.9670104980469 L 409.9129638671875 269.5864562988281 L 407.21527099609375 266.0867004394531 L 404.71331787109375 262.4720458984375 L 402.4094543457031 258.74676513671875 L 400.3059997558594 254.91505432128906 L 398.4052734375 250.98123168945312 L 396.70965576171875 246.9495086669922 L 395.2214660644531 242.82415771484375 L 393.9429931640625 238.6094207763672 L 392.87664794921875 234.30958557128906 L 392.02471923828125 229.9288787841797 L 391.38958740234375 225.47157287597656 L 390.9735412597656 220.94192504882812 L 390.7789306640625 216.3441619873047 L 390.8080749511719 211.6825714111328 L 391.0633544921875 206.96141052246094 L 391.5470886230469 202.18490600585938 L 392.2615966796875 197.3573455810547 L 393.209228515625 192.4829559326172 L 394.392333984375 187.56600952148438 L 395.8132019042969 182.6107635498047 L 397.4742126464844 177.62147521972656 L 399.3777160644531 172.60240173339844 L 401.5260009765625 167.5577850341797 L 403.9214172363281 162.49188232421875 L 406.5663146972656 157.40896606445312 L 409.4630126953125 152.3132781982422 L 412.6138916015625 147.20907592773438 L 416.0212097167969 142.10061645507812 M 495.5963439941406 376.5699462890625 L 489.7269287109375 374.42596435546875 L 484.06390380859375 372.1342468261719 L 478.6080322265625 369.6995849609375 L 473.3601379394531 367.1268310546875 L 468.3209228515625 364.42083740234375 L 463.4912109375 361.58642578125 L 458.8717956542969 358.62841796875 L 454.46343994140625 355.55169677734375 L 450.2668762207031 352.3610534667969 L 446.282958984375 349.06134033203125 L 442.512451171875 345.65740966796875 L 438.9560852050781 342.1540832519531 L 435.61468505859375 338.5561828613281 L 432.489013671875 334.86859130859375 L 429.579833984375 331.0960998535156 L 426.887939453125 327.24359130859375 L 424.41412353515625 323.31585693359375 L 422.1591491699219 319.3177490234375 L 420.1238098144531 315.2541198730469 L 418.3088684082031 311.12982177734375 L 416.7151184082031 306.94964599609375 L 415.3432922363281 302.71844482421875 L 414.1942443847656 298.4410705566406 L 413.2687072753906 294.1223449707031 L 412.56744384765625 289.7671203613281 L 412.0912780761719 285.3802185058594 L 411.8409423828125 280.96649169921875 L 411.8172607421875 276.53076171875 L 412.02099609375 272.077880859375 L 412.4529113769531 267.6127014160156 L 413.1138000488281 263.1400146484375 L 414.0044250488281 258.6646728515625 L 415.1256103515625 254.19154357910156 L 416.47808837890625 249.72544860839844 L 418.0626220703125 245.27120971679688 L 419.88006591796875 240.83367919921875 L 421.9311218261719 236.4176788330078 L 424.21661376953125 232.028076171875 L 426.7373046875 227.669677734375 L 429.49395751953125 223.3473358154297 L 432.4873962402344 219.0658721923828 L 435.7183532714844 214.8301544189453 L 439.1876525878906 210.64500427246094 L 442.8960266113281 206.51524353027344 L 446.8442687988281 202.44573974609375 L 451.0331726074219 198.44129943847656 L 455.4635314941406 194.50677490234375 L 460.1360778808594 190.64700317382812 L 465.0516052246094 186.86683654785156" stroke-opacity="1" stroke-linejoin="bevel" stroke-miterlimit="10" stroke-dasharray="" clip-path="url(#dvsTnokFBuoZ)"/><path fill="none" stroke="rgb(0,103,167)" paint-order="fill" d="M 271.0205078125 508.0248107910156 L 271.86468505859375 502.0443420410156 L 272.5934753417969 496.2884521484375 L 273.2085266113281 490.7576599121094 L 273.71142578125 485.45245361328125 L 274.1038818359375 480.3733215332031 L 274.387451171875 475.52081298828125 L 274.5638122558594 470.8953857421875 L 274.6346130371094 466.49755859375 L 274.6014709472656 462.32781982421875 L 274.4660339355469 458.3866882324219 L 274.2299499511719 454.6746826171875 L 273.8948059082031 451.1922302246094 L 273.4622802734375 447.93994140625 L 272.9339904785156 444.918212890625 L 272.31158447265625 442.12762451171875 L 271.5967102050781 439.5686340332031 L 270.7909851074219 437.24176025390625 L 269.89605712890625 435.14752197265625 L 268.91357421875 433.286376953125 L 267.8451232910156 431.65887451171875 L 266.6923828125 430.2654724121094 L 265.4570007324219 429.1067199707031 L 264.14056396484375 428.1830749511719 L 262.7447509765625 427.49505615234375 L 261.2712097167969 427.0431823730469 L 259.7215270996094 426.8279113769531 L 258.0973815917969 426.84979248046875 L 256.400390625 427.10931396484375 L 254.63218688964844 427.6069641113281 L 252.79441833496094 428.34326171875 L 250.88873291015625 429.3186950683594 L 248.91673278808594 430.5337829589844 L 246.8800811767578 431.9889831542969 L 244.78042602539062 433.6848449707031 L 242.61936950683594 435.62188720703125 L 240.3985595703125 437.800537109375 L 238.11965942382812 440.22137451171875 L 235.78427124023438 442.88482666015625 L 233.39404296875 445.7914733886719 L 230.95062255859375 448.9417724609375 L 228.45562744140625 452.3362121582031 L 225.9107208251953 455.9753112792969 L 223.3175048828125 459.8595886230469 L 220.6776580810547 463.9895324707031 L 217.99276733398438 468.36566162109375 L 215.26451110839844 472.9884338378906 L 212.4945068359375 477.8583679199219 L 209.6844024658203 482.97601318359375 L 206.8358154296875 488.341796875 M 152.54151916503906 449.72137451171875 L 156.9544219970703 445.46832275390625 L 161.1351318359375 441.32562255859375 L 165.08462524414062 437.2946472167969 L 168.8038787841797 433.3768005371094 L 172.2938995361328 429.5733947753906 L 175.55564880371094 425.88580322265625 L 178.5901336669922 422.3154296875 L 181.39833068847656 418.86358642578125 L 183.98123168945312 415.5316467285156 L 186.3397979736328 412.3210144042969 L 188.4750518798828 409.2330322265625 L 190.38796997070312 406.26904296875 L 192.0795135498047 403.430419921875 L 193.5507049560547 400.7185363769531 L 194.80250549316406 398.1347351074219 L 195.83590698242188 395.680419921875 L 196.65188598632812 393.35693359375 L 197.25144958496094 391.1656188964844 L 197.6355743408203 389.1078796386719 L 197.80523681640625 387.1850280761719 L 197.76144409179688 385.3984680175781 L 197.50515747070312 383.74957275390625 L 197.03738403320312 382.2396545410156 L 196.35910034179688 380.8701477050781 L 195.47129821777344 379.642333984375 L 194.3749542236328 378.5576477050781 L 193.071044921875 377.6174011230469 L 191.5605926513672 376.822998046875 L 189.84454345703125 376.17578125 L 187.92391967773438 375.6771240234375 L 185.7996826171875 375.3283996582031 L 183.47280883789062 375.13092041015625 L 180.94432067871094 375.08612060546875 L 178.21517944335938 375.1953125 L 175.28636169433594 375.4598693847656 L 172.1588897705078 375.88116455078125 L 168.83370971679688 376.4605712890625 L 165.31182861328125 377.1994323730469 L 161.59423828125 378.0991516113281 L 157.68191528320312 379.1610412597656 L 153.57583618164062 380.386474609375 L 149.27700805664062 381.7768249511719 L 144.78640747070312 383.3334655761719 L 140.10501098632812 385.0577697753906 L 135.2338104248047 386.9510498046875 L 130.17379760742188 389.0147399902344 L 124.92595672607422 391.2501525878906 L 119.49127197265625 393.6586608886719 L 113.87073516845703 396.24163818359375 M 94.9068832397461 333.5496826171875 L 101.07380676269531 332.7729797363281 L 106.98721313476562 331.9470520019531 L 112.64702606201172 331.0735778808594 L 118.05316925048828 330.1541748046875 L 123.20558166503906 329.1905517578125 L 128.10419464111328 328.184326171875 L 132.74893188476562 327.1372375488281 L 137.1397247314453 326.0508728027344 L 141.2764892578125 324.92694091796875 L 145.15919494628906 323.7670593261719 L 148.78773498535156 322.5729675292969 L 152.16204833984375 321.3462829589844 L 155.2820587158203 320.08868408203125 L 158.14772033691406 318.80181884765625 L 160.75894165039062 317.48736572265625 L 163.11566162109375 316.14697265625 L 165.21780395507812 314.7823486328125 L 167.0653076171875 313.3951110839844 L 168.65809631347656 311.9869384765625 L 169.99609375 310.5594787597656 L 171.07925415039062 309.11444091796875 L 171.907470703125 307.6534729003906 L 172.48069763183594 306.17822265625 L 172.7988739013672 304.69036865234375 L 172.86190795898438 303.1915588378906 L 172.66973876953125 301.6834716796875 L 172.2222900390625 300.16778564453125 L 171.51950073242188 298.6461181640625 L 170.56129455566406 297.1202087402344 L 169.3476104736328 295.5916442871094 L 167.87835693359375 294.0621337890625 L 166.1534881591797 292.5333557128906 L 164.1729278564453 291.0069274902344 L 161.93661499023438 289.4845275878906 L 159.44444274902344 287.9678649902344 L 156.69638061523438 286.45855712890625 L 153.69235229492188 284.958251953125 L 150.43226623535156 283.46868896484375 L 146.91607666015625 281.991455078125 L 143.14369201660156 280.52825927734375 L 139.11505126953125 279.0807800292969 L 134.83009338378906 277.650634765625 L 130.2887420654297 276.239501953125 L 125.49092864990234 274.84906005859375 L 120.43657684326172 273.4809875488281 L 115.12561798095703 272.13690185546875 L 109.55799102783203 270.8185119628906 L 103.73361206054688 269.5274658203125 L 97.65242767333984 268.26544189453125 M 121.81745147705078 207.2825164794922 L 127.202392578125 210.3015899658203 L 132.416748046875 213.132080078125 L 137.4594268798828 215.7752685546875 L 142.32931518554688 218.232421875 L 147.0253143310547 220.5048370361328 L 151.5463409423828 222.59378051757812 L 155.89129638671875 224.5005340576172 L 160.05908203125 226.2263946533203 L 164.048583984375 227.7726287841797 L 167.8587188720703 229.14053344726562 L 171.4884033203125 230.33135986328125 L 174.9365234375 231.34642028808594 L 178.2019805908203 232.18698120117188 L 181.28367614746094 232.85433959960938 L 184.18052673339844 233.34974670410156 L 186.89141845703125 233.6745147705078 L 189.41525268554688 233.82989501953125 L 191.75096130371094 233.81719970703125 L 193.8974151611328 233.63768005371094 L 195.85353088378906 233.2926483154297 L 197.6182098388672 232.78335571289062 L 199.1903533935547 232.11109924316406 L 200.56886291503906 231.27716064453125 L 201.7526397705078 230.28282165527344 L 202.7406005859375 229.1293487548828 L 203.5316162109375 227.81805419921875 L 204.1246337890625 226.3501739501953 L 204.5185089111328 224.72703552246094 L 204.71218872070312 222.94989013671875 L 204.7045440673828 221.02001953125 L 204.49449157714844 218.938720703125 L 204.0809326171875 216.707275390625 L 203.46275329589844 214.3269500732422 L 202.63888549804688 211.7990264892578 L 201.60821533203125 209.1248016357422 L 200.36964416503906 206.3055419921875 L 198.92208862304688 203.342529296875 L 197.26441955566406 200.237060546875 L 195.3955841064453 196.99038696289062 L 193.314453125 193.60382080078125 L 191.01992797851562 190.07862854003906 L 188.51092529296875 186.4160919189453 L 185.78634643554688 182.61749267578125 L 182.8450927734375 178.68411254882812 L 179.68606567382812 174.6172332763672 L 176.30816650390625 170.4181365966797 L 172.71031188964844 166.08810424804688 L 168.89137268066406 161.62841796875 L 164.85028076171875 157.0403594970703" stroke-opacity="1" stroke-linejoin="bevel" stroke-miterlimit="10" stroke-dasharray="" clip-path="url(#dvsTnokFBuoZ)"/><path fill="none" stroke="rgb(51,0,0)" paint-order="fill" d="M 496.7063293457031 244.52957153320312 L 490.80035400390625 246.5818634033203 L 485.09564208984375 248.7882843017578 L 479.5931396484375 251.14398193359375 L 474.2937316894531 253.64402770996094 L 469.1983337402344 256.28355407714844 L 464.3078918457031 259.05767822265625 L 459.623291015625 261.96148681640625 L 455.14544677734375 264.9901123046875 L 450.87530517578125 268.1386413574219 L 446.813720703125 271.4022216796875 L 442.961669921875 274.77593994140625 L 439.32000732421875 278.2548828125 L 435.8896789550781 281.8341979980469 L 432.671630859375 285.50897216796875 L 429.6667175292969 289.27435302734375 L 426.8758850097656 293.1253967285156 L 424.300048828125 297.0572814941406 L 421.94012451171875 301.0650329589844 L 419.7969970703125 305.1438293457031 L 417.8716125488281 309.28875732421875 L 416.1648864746094 313.49493408203125 L 414.6777038574219 317.7574462890625 L 413.4109802246094 322.0714416503906 L 412.3656921386719 326.4320068359375 L 411.54266357421875 330.834228515625 L 410.94287109375 335.2732849121094 L 410.56719970703125 339.7442321777344 L 410.4165954589844 344.2421875 L 410.4919128417969 348.7622985839844 L 410.79412841796875 353.29962158203125 L 411.3241271972656 357.8492736816406 L 412.08282470703125 362.40643310546875 L 413.0711669921875 366.96612548828125 L 414.2900085449219 371.52349853515625 L 415.74029541015625 376.07366943359375 L 417.4229431152344 380.6117248535156 L 419.3388671875 385.1328125 L 421.4889831542969 389.63201904296875 L 423.8741760253906 394.10443115234375 L 426.49542236328125 398.5451965332031 L 429.3535461425781 402.9494323730469 L 432.4495544433594 407.3122253417969 L 435.7843017578125 411.628662109375 L 439.3587341308594 415.8939208984375 L 443.1737365722656 420.1030578613281 L 447.2302551269531 424.2511901855469 L 451.5291748046875 428.33343505859375 L 456.0714111328125 432.34490966796875 L 460.85791015625 436.2807312011719 M 507.6428527832031 309 L 501.3689880371094 309.1068420410156 L 495.2313537597656 309.4244384765625 L 489.23248291015625 309.9483947753906 L 483.3749084472656 310.67431640625 L 477.6612243652344 311.59783935546875 L 472.09393310546875 312.71453857421875 L 466.6756591796875 314.0200500488281 L 461.4089050292969 315.50994873046875 L 456.2962646484375 317.17987060546875 L 451.3402404785156 319.02545166015625 L 446.5434265136719 321.042236328125 L 441.9083557128906 323.22589111328125 L 437.4375915527344 325.5719909667969 L 433.1336975097656 328.0761413574219 L 428.99920654296875 330.7339782714844 L 425.0367126464844 333.5411071777344 L 421.24871826171875 336.4931335449219 L 417.6378173828125 339.58563232421875 L 414.20654296875 342.81427001953125 L 410.95745849609375 346.17462158203125 L 407.89312744140625 349.6623229980469 L 405.0160827636719 353.27294921875 L 402.3288879394531 357.0021057128906 L 399.8341064453125 360.8454284667969 L 397.5342712402344 364.79852294921875 L 395.4319763183594 368.85699462890625 L 393.52972412109375 373.0164794921875 L 391.8301086425781 377.27252197265625 L 390.3356628417969 381.62078857421875 L 389.0489501953125 386.0568542480469 L 387.9725341796875 390.57635498046875 L 387.10894775390625 395.1748962402344 L 386.4607849121094 399.8480529785156 L 386.0305480957031 404.59149169921875 L 385.82080078125 409.4007568359375 L 385.8341369628906 414.2715148925781 L 386.0730895996094 419.1993713378906 L 386.5401916503906 424.17987060546875 L 387.238037109375 429.2087097167969 L 388.16912841796875 434.28143310546875 L 389.3360900878906 439.3936767578125 L 390.74139404296875 444.5410461425781 L 392.3876647949219 449.7191467285156 L 394.2774353027344 454.923583984375 L 396.4132385253906 460.1499938964844 L 398.7976379394531 465.3939514160156 L 401.4332275390625 470.6510925292969 L 404.322509765625 475.9170227050781 L 407.4680480957031 481.18731689453125" stroke-opacity="1" stroke-linejoin="bevel" stroke-miterlimit="10" stroke-dasharray="" clip-path="url(#dvsTnokFBuoZ)"/><path fill="none" stroke="rgb(225,0,209)" paint-order="fill" d="M 341.6365966796875 506.06658935546875 L 340.35919189453125 500.1582946777344 L 339.0467529296875 494.49859619140625 L 337.70111083984375 489.08746337890625 L 336.3240051269531 483.9248962402344 L 334.9172668457031 479.0107727050781 L 333.4826965332031 474.3450927734375 L 332.0221252441406 469.92779541015625 L 330.53729248046875 465.7588195800781 L 329.0300598144531 461.8381042480469 L 327.5021667480469 458.1656494140625 L 325.9554748535156 454.7413330078125 L 324.3917541503906 451.565185546875 L 322.8127746582031 448.6370849609375 L 321.22039794921875 445.95703125 L 319.61639404296875 443.52496337890625 L 318.0025634765625 441.3407897949219 L 316.3807067871094 439.404541015625 L 314.7526550292969 437.7160949707031 L 313.1201477050781 436.2754211425781 L 311.4850158691406 435.0824890136719 L 309.8490905761719 434.1372375488281 L 308.2141418457031 433.4396057128906 L 306.5819396972656 432.9895324707031 L 304.954345703125 432.7870178222656 L 303.3331604003906 432.83197021484375 L 301.7201232910156 433.1243591308594 L 300.1170654296875 433.66412353515625 L 298.52581787109375 434.45123291015625 L 296.9481201171875 435.485595703125 L 295.3858337402344 436.7672119140625 L 293.8407287597656 438.2959899902344 L 292.3146057128906 440.0718994140625 L 290.8092956542969 442.0948791503906 L 289.3265380859375 444.3648986816406 L 287.8681945800781 446.88189697265625 L 286.43603515625 449.6458435058594 L 285.0318603515625 452.6566467285156 L 283.657470703125 455.9142761230469 L 282.314697265625 459.418701171875 L 281.0052795410156 463.16986083984375 L 279.7310791015625 467.1676940917969 L 278.4938659667969 471.4121398925781 L 277.29547119140625 475.9031982421875 L 276.13763427734375 480.6407470703125 L 275.022216796875 485.62481689453125 L 273.95098876953125 490.85528564453125 L 272.9257507324219 496.3321533203125 L 271.9483337402344 502.0553283691406 L 271.0205078125 508.0248107910156" stroke-opacity="1" stroke-linejoin="bevel" stroke-miterlimit="10" stroke-dasharray="" clip-path="url(#dvsTnokFBuoZ)"/><path fill="rgb(51,0,0)" stroke="rgb(0,0,0)" paint-order="fill" d="M 394.0502624511719 126.0989990234375 A 7.5 7.5 0 0 1 379.0502624511719 126.0989990234375 A 7.5 7.5 0 0 1 394.0502624511719 126.0989990234375" fill-opacity="1" clip-path="url(#dvsTnokFBuoZ)" stroke-opacity="1" stroke-linejoin="bevel" stroke-miterlimit="10" stroke-dasharray=""/><path fill="rgb(0,103,167)" stroke="rgb(0,0,0)" paint-order="fill" d="M 109.24788665771484 365.64837646484375 A 7.5 7.5 0 0 1 94.24788665771484 365.64837646484375 A 7.5 7.5 0 0 1 109.24788665771484 365.64837646484375" fill-opacity="1" clip-path="url(#dvsTnokFBuoZ)" stroke-opacity="1" stroke-linejoin="bevel" stroke-miterlimit="10" stroke-dasharray=""/><path fill="rgb(225,0,209)" stroke="rgb(0,0,0)" paint-order="fill" d="M 443.64971923828125 460.95965576171875 A 7.5 7.5 0 0 1 428.64971923828125 460.95965576171875 A 7.5 7.5 0 0 1 443.64971923828125 460.95965576171875" fill-opacity="1" clip-path="url(#dvsTnokFBuoZ)" stroke-opacity="1" stroke-linejoin="bevel" stroke-miterlimit="10" stroke-dasharray=""/><g clip-path="url(#MplxDFSaoqpm)"><text fill="rgb(0,0,0)" stroke="none" font-family="helvetica" font-size="8pt" font-style="normal" font-weight="normal" text-decoration="normal" x="0" y="0" text-anchor="start" dominant-baseline="central" transform="matrix(0.4154150530896911, -0.9096319770470304, 0.9096319770470304, 0.4154150530896911, 390.8527526855469, 116.95394134521484)" fill-opacity="1">B</text></g><g clip-path="url(#MplxDFSaoqpm)"><text fill="rgb(0,0,0)" stroke="none" font-family="helvetica" font-size="8pt" font-style="normal" font-weight="normal" text-decoration="normal" x="0" y="0" text-anchor="start" dominant-baseline="central" transform="matrix(-0.9594929593669306, 0.2817326053641818, -0.2817326053641818, -0.9594929593669306, 91.8102798461914, 368.48077392578125)" fill-opacity="1">Melanoma or unclassified</text></g><g clip-path="url(#MplxDFSaoqpm)"><text fill="rgb(0,0,0)" stroke="none" font-family="helvetica" font-size="8pt" font-style="normal" font-weight="normal" text-decoration="normal" x="0" y="0" text-anchor="start" dominant-baseline="central" transform="matrix(0.6548607364018068, 0.7557495722256702, -0.7557495722256702, 0.6548607364018068, 442.9322204589844, 468.5576171875)" fill-opacity="1">T</text></g><text fill="rgb(68,68,68)" stroke="none" font-family="helvetica" font-size="13px" font-style="normal" font-weight="bold" text-decoration="normal" x="10" y="19" text-anchor="start" dominant-baseline="alphabetic" transform="matrix(1, 0, 0, 1, 0.5, 0.5)" fill-opacity="1">long</text><g transform="matrix(1, 0, 0, 1, 600, 0)"><path fill="rgb(255,255,255)" stroke="none" paint-order="stroke" d="M 0.5 0.5 L 600.5 0.5 L 600.5 600.5 L 0.5 600.5 L 0.5 0.5" fill-opacity="1"/><rect fill="#FFFFFF" stroke="none" x="10" y="27" width="580" height="563" transform="matrix(1, 0, 0, 1, 0.5, 0.5)"/><path fill="rgb(255,255,255)" stroke="none" paint-order="stroke" d="M 10.5 27.5 L 590.5 27.5 L 590.5 590.5 L 10.5 590.5 L 10.5 27.5" fill-opacity="1"/><path fill="none" stroke="rgb(51,0,0)" paint-order="fill" d="M 507.6428527832031 309 L 504.4007873535156 273.5647277832031 L 494.77606201171875 239.23867797851562 L 479.0699462890625 207.09634399414062 L 457.7740783691406 178.14389038085938 L 431.55511474609375 153.28759765625 L 401.2337646484375 133.30552673339844 L 367.7591857910156 118.82317352294922 L 332.1791687011719 110.29389190673828 L 295.6075439453125 107.98466491699219 L 259.18902587890625 111.9677734375 L 224.06369018554688 122.1185302734375 L 191.3310089111328 138.11920166015625 L 162.015625 159.4689178466797 L 137.03518676757812 185.49937438964844 L 117.17163848876953 215.39573669433594 L 103.04679107666016 248.22216796875 L 95.10276794433594 282.9511413574219 L 93.58824920654297 318.4954833984375 L 98.55064392089844 353.74261474609375" stroke-opacity="1" stroke-linejoin="bevel" stroke-miterlimit="10" stroke-width="10" stroke-dasharray="" clip-path="url(#MRRpcgJrPkeJ)"/><path fill="none" stroke="rgb(80,66,0)" paint-order="fill" d="M 98.55064392089844 353.74261474609375 L 103.04679107666016 369.77783203125 L 108.89173126220703 385.39788818359375 L 116.0455551147461 400.49603271484375 L 124.45939636230469 414.9692077636719 L 134.0757598876953 428.718505859375 L 144.8289794921875 441.6499938964844 L 156.64559936523438 453.6753234863281 L 169.4448699951172 464.71240234375 L 183.13938903808594 474.6858215332031 L 197.63560485839844 483.52740478515625 L 212.83448791503906 491.17681884765625 L 228.6322021484375 497.5817565917969 L 244.92086791992188 502.698486328125 L 261.58917236328125 506.4920654296875 L 278.5232849121094 508.93658447265625 L 295.6075439453125 510.0153503417969 L 312.7251892089844 509.720947265625 L 329.75933837890625 508.055419921875 L 346.5936279296875 505.0301513671875" stroke-opacity="1" stroke-linejoin="bevel" stroke-miterlimit="10" stroke-width="10" stroke-dasharray="" clip-path="url(#MRRpcgJrPkeJ)"/><path fill="none" stroke="rgb(0,103,167)" paint-order="fill" d="M 346.5936279296875 505.0301513671875 L 360.7767028808594 501.3702087402344 L 374.6572265625 496.74468994140625 L 388.16552734375 491.17681884765625 L 401.2337646484375 484.6944885253906 L 413.7964172363281 477.33026123046875 L 425.79034423828125 469.1211242675781 L 437.1553955078125 460.1082458496094 L 447.8345031738281 450.3368835449219 L 457.7740783691406 439.8561096191406 L 466.9242248535156 428.718505859375 L 475.239013671875 416.9799499511719 L 482.67669677734375 404.6994323730469 L 489.199951171875 391.93853759765625 L 494.77606201171875 378.7613220214844 L 499.3769836425781 365.23394775390625 L 502.9796447753906 351.42431640625 L 505.56597900390625 337.4017333984375 L 507.12298583984375 323.2366027832031 L 507.6428527832031 309" stroke-opacity="1" stroke-linejoin="bevel" stroke-miterlimit="10" stroke-width="10" stroke-dasharray="" clip-path="url(#MRRpcgJrPkeJ)"/><path fill="none" stroke="rgb(51,0,0)" paint-order="fill" d="M 98.55064392089844 353.74261474609375 L 104.60340118408203 352.3711242675781 L 110.39749145507812 350.996826171875 L 115.93306732177734 349.6209716796875 L 121.21024322509766 348.2447509765625 L 126.22916412353516 346.869384765625 L 130.98995971679688 345.4961242675781 L 135.4927520751953 344.12615966796875 L 139.7376708984375 342.7607421875 L 143.72486877441406 341.4010925292969 L 147.4544677734375 340.04840087890625 L 150.9265899658203 338.70391845703125 L 154.14137268066406 337.3688659667969 L 157.0989532470703 336.0444641113281 L 159.79945373535156 334.73193359375 L 162.24301147460938 333.4325256347656 L 164.4297637939453 332.14739990234375 L 166.35983276367188 330.8778381347656 L 168.03335571289062 329.6250305175781 L 169.45045471191406 328.3902282714844 L 170.6112823486328 327.17462158203125 L 171.5159454345703 325.9794616699219 L 172.1645965576172 324.8059387207031 L 172.55735778808594 323.6553039550781 L 172.69436645507812 322.52880859375 L 172.57574462890625 321.4276123046875 L 172.20162963867188 320.35296630859375 L 171.5721435546875 319.30609130859375 L 170.68743896484375 318.2882080078125 L 169.54763793945312 317.3005676269531 L 168.15286254882812 316.3443603515625 L 166.5032501220703 315.4208068847656 L 164.59893798828125 314.5311584472656 L 162.4400634765625 313.6766052246094 L 160.0267333984375 312.8583984375 L 157.35911560058594 312.0777587890625 L 154.4373016357422 311.33587646484375 L 151.26145935058594 310.634033203125 L 147.83169555664062 309.973388671875 L 144.1481475830078 309.355224609375 L 140.21095275878906 308.78070068359375 L 136.02024841308594 308.2510986328125 L 131.57615661621094 307.7676086425781 L 126.87879943847656 307.3314514160156 L 121.92832946777344 306.9438781738281 L 116.72486877441406 306.6060791015625 L 111.26854705810547 306.3193054199219 L 105.55950164794922 306.0847473144531 L 99.59785461425781 305.9036560058594 L 93.38375091552734 305.7772521972656 M 100.13177490234375 257.997314453125 L 106.15165710449219 259.4989318847656 L 111.94355773925781 260.8819274902344 L 117.50699615478516 262.1474609375 L 122.84151458740234 263.2966613769531 L 127.94664764404297 264.3306579589844 L 132.82192993164062 265.2506103515625 L 137.46690368652344 266.05767822265625 L 141.88107299804688 266.75299072265625 L 146.0640106201172 267.33770751953125 L 150.01522827148438 267.81292724609375 L 153.7342529296875 268.1798400878906 L 157.22064208984375 268.4395446777344 L 160.47390747070312 268.5932312011719 L 163.49359130859375 268.64202880859375 L 166.27923583984375 268.5870666503906 L 168.8303680419922 268.42950439453125 L 171.1465301513672 268.17047119140625 L 173.22723388671875 267.8111267089844 L 175.07203674316406 267.3525695800781 L 176.6804656982422 266.7960205078125 L 178.0520477294922 266.142578125 L 179.18630981445312 265.39337158203125 L 180.0828094482422 264.549560546875 L 180.74107360839844 263.6123046875 L 181.16062927246094 262.5827331542969 L 181.3410186767578 261.46197509765625 L 181.28175354003906 260.2511901855469 L 180.98239135742188 258.9515380859375 L 180.4424591064453 257.5641174316406 L 179.6614990234375 256.0901336669922 L 178.6390380859375 254.53067016601562 L 177.37460327148438 252.88690185546875 L 175.8677215576172 251.15997314453125 L 174.11795043945312 249.35101318359375 L 172.12481689453125 247.461181640625 L 169.88784790039062 245.49160766601562 L 167.40658569335938 243.4434356689453 L 164.68055725097656 241.3178253173828 L 161.70928955078125 239.1158905029297 L 158.49234008789062 236.83880615234375 L 155.0292205810547 234.48770141601562 L 151.31947326660156 232.06373596191406 L 147.36264038085938 229.56802368164062 L 143.15823364257812 227.00172424316406 L 138.705810546875 224.36598205566406 L 134.00489807128906 221.66192626953125 L 129.05502319335938 218.89073181152344 L 123.85572052001953 216.0535125732422 L 118.40653228759766 213.15142822265625 M 147.15670776367188 173.8195037841797 L 151.7783966064453 177.85365295410156 L 156.25448608398438 181.68026733398438 L 160.58399963378906 185.30015563964844 L 164.76597595214844 188.71412658691406 L 168.79946899414062 191.92298889160156 L 172.68353271484375 194.92755126953125 L 176.41717529296875 197.7285919189453 L 179.9994659423828 200.32693481445312 L 183.429443359375 202.723388671875 L 186.7061309814453 204.9187469482422 L 189.82859802246094 206.913818359375 L 192.79586791992188 208.70941162109375 L 195.6069793701172 210.3063201904297 L 198.260986328125 211.7053680419922 L 200.75692749023438 212.90733337402344 L 203.09384155273438 213.9130401611328 L 205.27076721191406 214.72329711914062 L 207.28675842285156 215.33889770507812 L 209.14085388183594 215.76063537597656 L 210.8320770263672 215.98934936523438 L 212.3594970703125 216.0258026123047 L 213.72213745117188 215.87083435058594 L 214.91905212402344 215.52523803710938 L 215.94927978515625 214.98980712890625 L 216.81185913085938 214.26535034179688 L 217.50582885742188 213.35267639160156 L 218.0302276611328 212.2526092529297 L 218.3841094970703 210.96591186523438 L 218.56651306152344 209.49342346191406 L 218.57647705078125 207.8359375 L 218.4130401611328 205.9942626953125 L 218.07525634765625 203.9691925048828 L 217.56216430664062 201.76153564453125 L 216.872802734375 199.37210083007812 L 216.00619506835938 196.80169677734375 L 214.96141052246094 194.05111694335938 L 213.73748779296875 191.1211700439453 L 212.33346557617188 188.01266479492188 L 210.7483673095703 184.7263946533203 L 208.98126220703125 181.26318359375 L 207.0311737060547 177.6238250732422 L 204.89715576171875 173.80911254882812 L 202.5782470703125 169.8198699951172 L 200.07347106933594 165.6569061279297 L 197.38189697265625 161.3209991455078 L 194.5025634765625 156.81297302246094 L 191.4344940185547 152.1336212158203 L 188.17674255371094 147.2837677001953 L 184.72836303710938 142.26419067382812 M 228.96009826660156 120.30081176757812 L 231.13539123535156 125.9525375366211 L 233.28048706054688 131.35488891601562 L 235.39413452148438 136.50816345214844 L 237.47509765625 141.41261291503906 L 239.52215576171875 146.0685577392578 L 241.53407287597656 150.47625732421875 L 243.50961303710938 154.63600158691406 L 245.4475555419922 158.54808044433594 L 247.34664916992188 162.21275329589844 L 249.20565795898438 165.63034057617188 L 251.0233612060547 168.80108642578125 L 252.7985382080078 171.72531127929688 L 254.52993774414062 174.40325927734375 L 256.21632385253906 176.8352508544922 L 257.8564758300781 179.02154541015625 L 259.44915771484375 180.9624481201172 L 260.9931335449219 182.65821838378906 L 262.4871826171875 184.10914611816406 L 263.9300537109375 185.3155059814453 L 265.3205261230469 186.27761840820312 L 266.6573486328125 186.9957275390625 L 267.9393005371094 187.47012329101562 L 269.1651611328125 187.70111083984375 L 270.3337097167969 187.68894958496094 L 271.44366455078125 187.43392944335938 L 272.49383544921875 186.93634033203125 L 273.4829406738281 186.1964569091797 L 274.4098205566406 185.21456909179688 L 275.273193359375 183.99095153808594 L 276.07183837890625 182.52589416503906 L 276.80450439453125 180.81968688964844 L 277.469970703125 178.8726043701172 L 278.0670166015625 176.68492126464844 L 278.5943908691406 174.25694274902344 L 279.0509033203125 171.58892822265625 L 279.43524169921875 168.68118286132812 L 279.7462463378906 165.5339813232422 L 279.982666015625 162.14759826660156 L 280.14324951171875 158.52232360839844 L 280.22674560546875 154.65843200683594 L 280.23199462890625 150.5562286376953 L 280.1576843261719 146.2159881591797 L 280.00262451171875 141.63796997070312 L 279.7655944824219 136.82249450683594 L 279.4453125 131.7698211669922 L 279.04058837890625 126.48023223876953 L 278.5501708984375 120.95402526855469 L 277.97283935546875 115.19147491455078 L 277.307373046875 109.19286346435547 M 326.98883056640625 109.5793685913086 L 326.2243957519531 115.56684875488281 L 325.5519714355469 121.3196792602539 L 324.9703674316406 126.8375473022461 L 324.4783630371094 132.12014770507812 L 324.07470703125 137.1671905517578 L 323.7581787109375 141.97837829589844 L 323.5275573730469 146.55337524414062 L 323.381591796875 150.8919219970703 L 323.319091796875 154.99368286132812 L 323.33880615234375 158.85836791992188 L 323.43951416015625 162.4856719970703 L 323.6199645996094 165.8752899169922 L 323.87896728515625 169.0269317626953 L 324.21527099609375 171.94029235839844 L 324.62762451171875 174.6150665283203 L 325.1148681640625 177.05093383789062 L 325.67572021484375 179.24761962890625 L 326.3089599609375 181.20480346679688 L 327.01336669921875 182.9221954345703 L 327.7876892089844 184.3994903564453 L 328.6307373046875 185.63638305664062 L 329.5412902832031 186.632568359375 L 330.51806640625 187.3877410888672 L 331.55987548828125 187.90159606933594 L 332.6654968261719 188.17385864257812 L 333.83367919921875 188.20419311523438 L 335.0632019042969 187.99232482910156 L 336.3528137207031 187.5379180908203 L 337.7013244628906 186.8406982421875 L 339.1075134277344 185.90036010742188 L 340.57012939453125 184.71658325195312 L 342.0879211425781 183.28909301757812 L 343.6596984863281 181.6175537109375 L 345.28424072265625 179.70169067382812 L 346.96026611328125 177.54119873046875 L 348.68658447265625 175.13575744628906 L 350.4620056152344 172.48507690429688 L 352.28521728515625 169.58885192871094 L 354.1550598144531 166.44679260253906 L 356.07025146484375 163.05857849121094 L 358.02960205078125 159.4239044189453 L 360.0318908691406 155.54249572753906 L 362.07586669921875 151.4140167236328 L 364.1603088378906 147.03817749023438 L 366.2839660644531 142.41468811035156 L 368.4456481933594 137.54324340820312 L 370.6441345214844 132.42352294921875 L 372.8781433105469 127.05522918701172 L 375.146484375 121.43807220458984 M 419.0098876953125 144.0867919921875 L 415.47906494140625 149.05206298828125 L 412.1416320800781 153.85061645507812 L 408.9967041015625 158.48162841796875 L 406.0433044433594 162.9442901611328 L 403.2804870605469 167.23776245117188 L 400.7073059082031 171.36122131347656 L 398.32281494140625 175.31387329101562 L 396.1260681152344 179.0948944091797 L 394.11614990234375 182.7034454345703 L 392.2920837402344 186.1387176513672 L 390.6529235839844 189.39990234375 L 389.19775390625 192.4861602783203 L 387.92559814453125 195.39669799804688 L 386.8355407714844 198.1306610107422 L 385.9266052246094 200.687255859375 L 385.1978759765625 203.06565856933594 L 384.6484069824219 205.26504516601562 L 384.2772216796875 207.28460693359375 L 384.0834045410156 209.12350463867188 L 384.0660095214844 210.7809295654297 L 384.22406005859375 212.25607299804688 L 384.556640625 213.548095703125 L 385.0628356933594 214.6562042236328 L 385.74163818359375 215.5795440673828 L 386.5921325683594 216.31732177734375 L 387.6134033203125 216.86871337890625 L 388.804443359375 217.23289489746094 L 390.1643371582031 217.40904235839844 L 391.6921691894531 217.39634704589844 L 393.386962890625 217.19398498535156 L 395.2477722167969 216.8011474609375 L 397.273681640625 216.2169952392578 L 399.4637145996094 215.44070434570312 L 401.8169250488281 214.4714813232422 L 404.3323974609375 213.30850219726562 L 407.0091552734375 211.950927734375 L 409.8462829589844 210.39796447753906 L 412.8428039550781 208.6487579345703 L 415.997802734375 206.70252990722656 L 419.3103332519531 204.5584259033203 L 422.7794494628906 202.2156524658203 L 426.4041748046875 199.67337036132812 L 430.18359375 196.93077087402344 L 434.11676025390625 193.98704528808594 L 438.2027282714844 190.84133911132812 L 442.4405517578125 187.4928741455078 L 446.82928466796875 183.9407958984375 L 451.3679504394531 180.18431091308594 L 456.0556640625 176.22259521484375" stroke-opacity="1" stroke-linejoin="bevel" stroke-miterlimit="10" stroke-dasharray="" clip-path="url(#vtTezHJxtEVB)"/><path fill="none" stroke="rgb(80,66,0)" paint-order="fill" d="M 346.5936279296875 505.0301513671875 L 345.2967529296875 498.97235107421875 L 344.225830078125 492.80572509765625 L 343.37738037109375 486.5376281738281 L 342.74786376953125 480.1754150390625 L 342.3337707519531 473.72650146484375 L 342.1316223144531 467.1982421875 L 342.1379089355469 460.5979919433594 L 342.34912109375 453.93310546875 L 342.76171875 447.21099853515625 L 343.3722229003906 440.4389953613281 L 344.1771240234375 433.62451171875 L 345.17291259765625 426.77490234375 L 346.3560791015625 419.89752197265625 L 347.7231140136719 412.9997253417969 L 349.2705078125 406.08892822265625 L 350.9947509765625 399.1724853515625 L 352.8923645019531 392.2577209472656 L 354.9598083496094 385.3520812988281 L 357.1935729980469 378.462890625 L 359.59014892578125 371.5975341796875 L 362.14605712890625 364.76336669921875 L 364.8577880859375 357.9677734375 L 367.7218017578125 351.2181396484375 L 370.734619140625 344.52178955078125 L 373.8927307128906 337.8861389160156 L 377.1925964355469 331.3185119628906 L 380.6307373046875 324.8263244628906 L 384.2036437988281 318.4169006347656 L 387.9078063964844 312.0976867675781 L 391.7397155761719 305.8759765625 L 395.69586181640625 299.7591552734375 L 399.77276611328125 293.7546081542969 L 403.96685791015625 287.8697204589844 L 408.2746887207031 282.1118469238281 L 412.6927185058594 276.48834228515625 L 417.2174377441406 271.006591796875 L 421.8453674316406 265.6739501953125 L 426.5729675292969 260.4978332519531 L 431.3967590332031 255.4855499267578 L 436.313232421875 250.64451599121094 L 441.31884765625 245.98208618164062 L 446.4101257324219 241.505615234375 L 451.5835266113281 237.22250366210938 L 456.8356018066406 233.14010620117188 L 462.16278076171875 229.2657928466797 L 467.5616149902344 225.60691833496094 L 473.0285339355469 222.17088317871094 L 478.56005859375 218.9650421142578 L 484.1527099609375 215.99676513671875 M 292.7546691894531 509.9308166503906 L 293.1165771484375 503.75103759765625 L 293.7245178222656 497.5177307128906 L 294.5732116699219 491.2373352050781 L 295.6572570800781 484.9161376953125 L 296.9714050292969 478.56048583984375 L 298.51025390625 472.1767272949219 L 300.2685546875 465.771240234375 L 302.24090576171875 459.3503112792969 L 304.4220275878906 452.92034912109375 L 306.8065490722656 446.4876403808594 L 309.3891906738281 440.05853271484375 L 312.16461181640625 433.6394348144531 L 315.1274719238281 427.23663330078125 L 318.2724609375 420.8564758300781 L 321.5942077636719 414.50531005859375 L 325.08746337890625 408.18951416015625 L 328.7467956542969 401.9154052734375 L 332.5669860839844 395.6893005371094 L 336.5426330566406 389.5176086425781 L 340.6684265136719 383.4066162109375 L 344.9390563964844 377.3627014160156 L 349.3491516113281 371.3922119140625 L 353.8934326171875 365.50146484375 L 358.5665588378906 359.6968078613281 L 363.36322021484375 353.984619140625 L 368.2780456542969 348.3711853027344 L 373.30572509765625 342.8629150390625 L 378.44091796875 337.46612548828125 L 383.6783447265625 332.1871337890625 L 389.01263427734375 327.0323486328125 L 394.4384765625 322.008056640625 L 399.9505310058594 317.12060546875 L 405.5434875488281 312.3763732910156 L 411.2120056152344 307.78167724609375 L 416.95074462890625 303.3428955078125 L 422.75439453125 299.0663146972656 L 428.6176452636719 294.9583435058594 L 434.5351257324219 291.0252990722656 L 440.5015563964844 287.27349853515625 L 446.5115661621094 283.7093200683594 L 452.55987548828125 280.339111328125 L 458.64111328125 277.169189453125 L 464.74993896484375 274.2059326171875 L 470.8810729980469 271.4556579589844 L 477.0291748046875 268.9247131347656 L 483.18890380859375 266.61944580078125 L 489.3549499511719 264.54620361328125 L 495.52197265625 262.71136474609375 L 501.68463134765625 261.1212158203125" stroke-opacity="1" stroke-linejoin="bevel" stroke-miterlimit="10" stroke-dasharray="" clip-path="url(#vtTezHJxtEVB)"/><path fill="none" stroke="rgb(51,0,0)" paint-order="fill" d="M 507.6428527832031 309 L 501.2647399902344 309.1192321777344 L 494.8171691894531 309.4736022949219 L 488.3070068359375 310.05828857421875 L 481.7410583496094 310.8683166503906 L 475.1261901855469 311.8988342285156 L 468.4692077636719 313.1449279785156 L 461.7769775390625 314.6017150878906 L 455.05633544921875 316.2642517089844 L 448.3141174316406 318.127685546875 L 441.5571594238281 320.18707275390625 L 434.79229736328125 322.43756103515625 L 428.0263977050781 324.87420654296875 L 421.2662658691406 327.4921569824219 L 414.51873779296875 330.2864685058594 L 407.7906799316406 333.25225830078125 L 401.0888977050781 336.3846435546875 L 394.4202880859375 339.6787109375 L 387.7916259765625 343.1295471191406 L 381.20977783203125 346.7322692871094 L 374.68157958984375 350.48199462890625 L 368.2138671875 354.373779296875 L 361.8135070800781 358.40277099609375 L 355.4873046875 362.56402587890625 L 349.2420959472656 366.8526916503906 L 343.0847473144531 371.2638244628906 L 337.0220642089844 375.79254150390625 L 331.0609436035156 380.4339599609375 L 325.2081604003906 385.18316650390625 L 319.4705810546875 390.0352478027344 L 313.85504150390625 394.9853210449219 L 308.3683776855469 400.0284729003906 L 303.0174560546875 405.1598205566406 L 297.80908203125 410.3744812011719 L 292.7500915527344 415.6675109863281 L 287.84735107421875 421.0340576171875 L 283.1076965332031 426.46917724609375 L 278.5379333496094 431.9679870605469 L 274.1449279785156 437.52557373046875 L 269.9355163574219 443.1370849609375 L 265.9165344238281 448.7975769042969 L 262.0948486328125 454.5021667480469 L 258.47723388671875 460.2459716796875 L 255.07058715820312 466.0240478515625 L 251.88172912597656 471.8315124511719 L 248.91748046875 477.66351318359375 L 246.18470764160156 483.51507568359375 L 243.69024658203125 489.38134765625 L 241.44091796875 495.2574157714844 L 239.44357299804688 501.1383972167969" stroke-opacity="1" stroke-linejoin="bevel" stroke-miterlimit="10" stroke-dasharray="" clip-path="url(#vtTezHJxtEVB)"/><path fill="none" stroke="rgb(80,66,0)" paint-order="fill" d="M 190.29335021972656 479.2520446777344 L 193.5723419189453 474.1258239746094 L 196.66265869140625 469.1713562011719 L 199.56536865234375 464.38946533203125 L 202.2815399169922 459.7810363769531 L 204.81222534179688 455.3468933105469 L 207.1584930419922 451.087890625 L 209.3214111328125 447.0049133300781 L 211.30201721191406 443.0987854003906 L 213.1013946533203 439.3703918457031 L 214.72059631347656 435.820556640625 L 216.1606903076172 432.45013427734375 L 217.42274475097656 429.2599792480469 L 218.50779724121094 426.2509765625 L 219.41693115234375 423.4239501953125 L 220.1511993408203 420.7797546386719 L 220.71165466308594 418.31927490234375 L 221.09938049316406 416.0433044433594 L 221.3154296875 413.9527587890625 L 221.36085510253906 412.0484619140625 L 221.2367401123047 410.3312683105469 L 220.94412231445312 408.80206298828125 L 220.48406982421875 407.4616394042969 L 219.85765075683594 406.3109130859375 L 219.06593322753906 405.3506774902344 L 218.10995483398438 404.58184814453125 L 216.9907989501953 404.0052490234375 L 215.7095184326172 403.6217346191406 L 214.26718139648438 403.43212890625 L 212.6648406982422 403.4373474121094 L 210.903564453125 403.6382141113281 L 208.9844207763672 404.03558349609375 L 206.90846252441406 404.6302795410156 L 204.67674255371094 405.4232177734375 L 202.29034423828125 406.4151916503906 L 199.75030517578125 407.60711669921875 L 197.05770874023438 408.9997863769531 L 194.21360778808594 410.5940856933594 L 191.2190704345703 412.390869140625 L 188.07513427734375 414.3909912109375 L 184.78289794921875 416.59527587890625 L 181.34339904785156 419.004638671875 L 177.7576904296875 421.619873046875 L 174.02687072753906 424.44183349609375 L 170.15196228027344 427.471435546875 L 166.13404846191406 430.70947265625 L 161.9741973876953 434.1568298339844 L 157.67344665527344 437.8143615722656 L 153.23287963867188 441.6828918457031 L 148.65353393554688 445.7633056640625 M 117.36180877685547 402.9543762207031 L 122.84199523925781 400.10638427734375 L 128.07032775878906 397.3155517578125 L 133.0472869873047 394.5831298828125 L 137.7733612060547 391.9103698730469 L 142.24900817871094 389.2985534667969 L 146.4747314453125 386.7489013671875 L 150.4510040283203 384.2626953125 L 154.1782989501953 381.8411865234375 L 157.6571044921875 379.485595703125 L 160.8878936767578 377.1972351074219 L 163.8711395263672 374.977294921875 L 166.6073455810547 372.82708740234375 L 169.09695434570312 370.7478332519531 L 171.34048461914062 368.74078369140625 L 173.33839416503906 366.8072204589844 L 175.09117126464844 364.9483947753906 L 176.5992889404297 363.1655578613281 L 177.86322021484375 361.4599304199219 L 178.8834686279297 359.83282470703125 L 179.66049194335938 358.28546142578125 L 180.1947784423828 356.819091796875 L 180.48680114746094 355.4349670410156 L 180.53704833984375 354.1343688964844 L 180.34600830078125 352.9185485839844 L 179.9141387939453 351.7887268066406 L 179.24192810058594 350.7461853027344 L 178.32986450195312 349.7922058105469 L 177.17840576171875 348.927978515625 L 175.78805541992188 348.1548156738281 L 174.15928649902344 347.47393798828125 L 172.29257202148438 346.8865966796875 L 170.1884002685547 346.39410400390625 L 167.8472442626953 345.99761962890625 L 165.26959228515625 345.698486328125 L 162.45591735839844 345.4979248046875 L 159.4066925048828 345.3971862792969 L 156.12240600585938 345.39752197265625 L 152.60353088378906 345.50018310546875 L 148.85055541992188 345.7064514160156 L 144.8639678955078 346.0175476074219 L 140.64422607421875 346.43475341796875 L 136.1918182373047 346.9593200683594 L 131.50721740722656 347.5924987792969 L 126.59092712402344 348.3355407714844 L 121.44340515136719 349.189697265625 L 116.06513214111328 350.1562194824219 L 110.45659637451172 351.23638916015625 L 104.61827850341797 352.4314270019531 L 98.55064392089844 353.74261474609375" stroke-opacity="1" stroke-linejoin="bevel" stroke-miterlimit="10" stroke-dasharray="" clip-path="url(#vtTezHJxtEVB)"/><path fill="none" stroke="rgb(0,103,167)" paint-order="fill" d="M 507.6428527832031 309 L 501.426513671875 309.033203125 L 495.4598693847656 309.1318664550781 L 489.74310302734375 309.29461669921875 L 484.2763977050781 309.5201416015625 L 479.0599670410156 309.80706787109375 L 474.09393310546875 310.1539611816406 L 469.3785705566406 310.5595397949219 L 464.9140319824219 311.02239990234375 L 460.70050048828125 311.54119873046875 L 456.7381896972656 312.1145324707031 L 453.0272521972656 312.7410888671875 L 449.56793212890625 313.4194641113281 L 446.3603515625 314.1483154296875 L 443.40478515625 314.92626953125 L 440.7013244628906 315.751953125 L 438.250244140625 316.6240539550781 L 436.05169677734375 317.5411376953125 L 434.10589599609375 318.5018615722656 L 432.4129943847656 319.5048828125 L 430.97320556640625 320.548828125 L 429.7867431640625 321.63232421875 L 428.8537292480469 322.7539978027344 L 428.1744384765625 323.91253662109375 L 427.7489929199219 325.10650634765625 L 427.5776062011719 326.3345947265625 L 427.6604919433594 327.5954284667969 L 427.997802734375 328.8876037597656 L 428.5897521972656 330.2098083496094 L 429.4365234375 331.5606689453125 L 430.5382995605469 332.93878173828125 L 431.8952941894531 334.34283447265625 L 433.5076904296875 335.7714538574219 L 435.3756408691406 337.2232360839844 L 437.4993896484375 338.69683837890625 L 439.87908935546875 340.19091796875 L 442.5149841308594 341.7040710449219 L 445.4071960449219 343.2349853515625 L 448.5559387207031 344.7822570800781 L 451.9613952636719 346.3445129394531 L 455.6238098144531 347.9204406738281 L 459.5433044433594 349.5086364746094 L 463.7200927734375 351.10772705078125 L 468.1543884277344 352.71636962890625 L 472.8463439941406 354.3332214355469 L 477.7961730957031 355.9568786621094 L 483.00408935546875 357.5859680175781 L 488.47021484375 359.21917724609375 L 494.1947937011719 360.8551025390625 L 500.1780090332031 362.4924011230469 M 478.321533203125 412.12939453125 L 472.96759033203125 409.06298828125 L 467.79339599609375 406.1770935058594 L 462.7998352050781 403.47064208984375 L 457.98779296875 400.94256591796875 L 453.358154296875 398.59173583984375 L 448.9117736816406 396.4171447753906 L 444.6495666503906 394.4176940917969 L 440.5724182128906 392.59228515625 L 436.6811828613281 390.93988037109375 L 432.976806640625 389.4593505859375 L 429.4601135253906 388.1496887207031 L 426.1319885253906 387.0097351074219 L 422.99334716796875 386.0384826660156 L 420.0450744628906 385.2348327636719 L 417.28802490234375 384.5976867675781 L 414.7231140136719 384.1260070800781 L 412.3511962890625 383.8186950683594 L 410.17315673828125 383.6746826171875 L 408.1899108886719 383.6929016113281 L 406.40234375 383.87225341796875 L 404.811279296875 384.211669921875 L 403.41766357421875 384.7100830078125 L 402.2223815917969 385.36639404296875 L 401.2262878417969 386.1795654296875 L 400.43023681640625 387.14849853515625 L 399.835205078125 388.2720947265625 L 399.4419860839844 389.54931640625 L 399.2514953613281 390.97906494140625 L 399.2646484375 392.560302734375 L 399.4822998046875 394.2918701171875 L 399.9053039550781 396.17279052734375 L 400.53460693359375 398.201904296875 L 401.3710632324219 400.3782043457031 L 402.4155578613281 402.7005615234375 L 403.6689758300781 405.16790771484375 L 405.1322021484375 407.7792053222656 L 406.80609130859375 410.5333251953125 L 408.69158935546875 413.4292297363281 L 410.7895202636719 416.4658508300781 L 413.1007995605469 419.6420593261719 L 415.6263122558594 422.95684814453125 L 418.366943359375 426.4090576171875 L 421.3235778808594 429.9976806640625 L 424.4970703125 433.7216491699219 L 427.8883361816406 437.5798034667969 L 431.49822998046875 441.5711669921875 L 435.3276672363281 445.694580078125 L 439.3775329589844 449.94903564453125 L 443.648681640625 454.3334045410156 M 398.65850830078125 486.0625915527344 L 395.68267822265625 480.76470947265625 L 392.7657470703125 475.7112731933594 L 389.9090881347656 470.90179443359375 L 387.114013671875 466.3357849121094 L 384.3818054199219 462.0127868652344 L 381.7138671875 457.9323425292969 L 379.1114807128906 454.0939025878906 L 376.5759582519531 450.49700927734375 L 374.1086730957031 447.14117431640625 L 371.7109069824219 444.02593994140625 L 369.384033203125 441.1507873535156 L 367.12933349609375 438.5152587890625 L 364.94818115234375 436.1188659667969 L 362.84185791015625 433.96112060546875 L 360.8117370605469 432.0415344238281 L 358.8591003417969 430.3596496582031 L 356.9853210449219 428.9149475097656 L 355.19171142578125 427.7069396972656 L 353.47955322265625 426.73516845703125 L 351.8502502441406 425.9991760253906 L 350.3050842285156 425.4984130859375 L 348.8453674316406 425.2324523925781 L 347.47247314453125 425.20074462890625 L 346.1877136230469 425.40289306640625 L 344.9924011230469 425.8383483886719 L 343.88787841796875 426.50665283203125 L 342.8754577636719 427.4073181152344 L 341.95648193359375 428.53985595703125 L 341.13226318359375 429.9037780761719 L 340.4041442871094 431.4986267089844 L 339.7734680175781 433.32391357421875 L 339.24151611328125 435.3791198730469 L 338.80963134765625 437.6637878417969 L 338.47918701171875 440.17742919921875 L 338.25146484375 442.9195556640625 L 338.1277770996094 445.88970947265625 L 338.1094970703125 449.0873718261719 L 338.19793701171875 452.5120849609375 L 338.3944091796875 456.163330078125 L 338.70025634765625 460.0406799316406 L 339.1167907714844 464.1435852050781 L 339.6453857421875 468.47161865234375 L 340.28729248046875 473.0242614746094 L 341.0439147949219 477.8010559082031 L 341.9165344238281 482.801513671875 L 342.9064636230469 488.0251159667969 L 344.01507568359375 493.4714050292969 L 345.2436828613281 499.1399230957031 L 346.5936279296875 505.0301513671875" stroke-opacity="1" stroke-linejoin="bevel" stroke-miterlimit="10" stroke-dasharray="" clip-path="url(#vtTezHJxtEVB)"/><path fill="rgb(51,0,0)" stroke="rgb(0,0,0)" paint-order="fill" d="M 284.807373046875 109.19286346435547 A 7.5 7.5 0 0 1 269.807373046875 109.19286346435547 A 7.5 7.5 0 0 1 284.807373046875 109.19286346435547" fill-opacity="1" clip-path="url(#vtTezHJxtEVB)" stroke-opacity="1" stroke-linejoin="bevel" stroke-miterlimit="10" stroke-dasharray=""/><path fill="rgb(80,66,0)" stroke="rgb(0,0,0)" paint-order="fill" d="M 197.79335021972656 479.2520446777344 A 7.5 7.5 0 0 1 182.79335021972656 479.2520446777344 A 7.5 7.5 0 0 1 197.79335021972656 479.2520446777344" fill-opacity="1" clip-path="url(#vtTezHJxtEVB)" stroke-opacity="1" stroke-linejoin="bevel" stroke-miterlimit="10" stroke-dasharray=""/><path fill="rgb(0,103,167)" stroke="rgb(0,0,0)" paint-order="fill" d="M 469.9508056640625 434.3659973144531 A 7.5 7.5 0 0 1 454.9508056640625 434.3659973144531 A 7.5 7.5 0 0 1 469.9508056640625 434.3659973144531" fill-opacity="1" clip-path="url(#vtTezHJxtEVB)" stroke-opacity="1" stroke-linejoin="bevel" stroke-miterlimit="10" stroke-dasharray=""/><g clip-path="url(#xDTcrqwOSfQP)"><text fill="rgb(0,0,0)" stroke="none" font-family="helvetica" font-size="8pt" font-style="normal" font-weight="normal" text-decoration="normal" x="0" y="0" text-anchor="start" dominant-baseline="central" transform="matrix(-0.11196444648977855, -0.9937122132298856, 0.9937122132298856, -0.11196444648977855, 276.1477355957031, 99.20250701904297)" fill-opacity="1">B</text></g><g clip-path="url(#xDTcrqwOSfQP)"><text fill="rgb(0,0,0)" stroke="none" font-family="helvetica" font-size="8pt" font-style="normal" font-weight="normal" text-decoration="normal" x="0" y="0" text-anchor="start" dominant-baseline="central" transform="matrix(-0.5320320041783853, 0.8467242446805989, -0.8467242446805989, -0.5320320041783853, 184.78302001953125, 487.7646484375)" fill-opacity="1">CAF</text></g><g clip-path="url(#xDTcrqwOSfQP)"><text fill="rgb(0,0,0)" stroke="none" font-family="helvetica" font-size="8pt" font-style="normal" font-weight="normal" text-decoration="normal" x="0" y="0" text-anchor="start" dominant-baseline="central" transform="matrix(0.7818314973328329, 0.6234897832188596, -0.6234897832188596, 0.7818314973328329, 470.54833984375, 440.63427734375)" fill-opacity="1">Melanoma or unclassified</text></g><text fill="rgb(68,68,68)" stroke="none" font-family="helvetica" font-size="13px" font-style="normal" font-weight="bold" text-decoration="normal" x="10" y="19" text-anchor="start" dominant-baseline="alphabetic" transform="matrix(1, 0, 0, 1, 0.5, 0.5)" fill-opacity="1">short</text></g><g transform="matrix(1, 0, 0, 1, 1200, 0)"><path fill="rgb(255,255,255)" stroke="none" paint-order="stroke" d="M 0.5 0.5 L 600.5 0.5 L 600.5 600.5 L 0.5 600.5 L 0.5 0.5" fill-opacity="1"/><rect fill="#FFFFFF" stroke="none" x="10" y="27" width="580" height="563" transform="matrix(1, 0, 0, 1, 0.5, 0.5)"/><path fill="rgb(255,255,255)" stroke="none" paint-order="stroke" d="M 10.5 27.5 L 590.5 27.5 L 590.5 590.5 L 10.5 590.5 L 10.5 27.5" fill-opacity="1"/><path fill="none" stroke="rgb(51,0,0)" paint-order="fill" d="M 507.6428527832031 309 L 504.81768798828125 275.90472412109375 L 496.4192810058594 243.71221923828125 L 482.67669677734375 213.3005828857422 L 463.9648132324219 185.49937438964844 L 440.7940368652344 161.0669403076172 L 413.7964172363281 140.66973876953125 L 383.7083435058594 124.86415100097656 L 351.3505554199219 114.08130645751953 L 317.605712890625 108.6153335571289 L 283.394287109375 108.6153335571289 L 249.64942932128906 114.08130645751953 L 217.29165649414062 124.86415100097656 L 187.20359802246094 140.66973876953125 L 160.20596313476562 161.0669403076172 L 137.03518676757812 185.49937438964844 L 118.32329559326172 213.3005828857422 L 104.5807113647461 243.71221923828125 L 96.18230438232422 275.90472412109375 L 93.35713958740234 309" stroke-opacity="1" stroke-linejoin="bevel" stroke-miterlimit="10" stroke-width="10" stroke-dasharray="" clip-path="url(#zhVtFQNbsyLI)"/><path fill="none" stroke="rgb(80,66,0)" paint-order="fill" d="M 93.35713958740234 309 L 93.41492462158203 313.7490539550781 L 93.58824920654297 318.4954833984375 L 93.87701416015625 323.2366027832031 L 94.28105926513672 327.96978759765625 L 94.80016326904297 332.6923828125 L 95.43402862548828 337.4017333984375 L 96.18230438232422 342.09527587890625 L 97.04457092285156 346.77032470703125 L 98.02035522460938 351.42431640625 L 99.1091079711914 356.05462646484375 L 100.31021881103516 360.6587219238281 L 101.6230239868164 365.23394775390625 L 103.04679107666016 369.77783203125 L 104.5807113647461 374.28778076171875 L 106.22395324707031 378.7613220214844 L 107.97557830810547 383.1959228515625 L 109.8346176147461 387.5891418457031 L 111.80003356933594 391.93853759765625 L 113.87073516845703 396.24163818359375" stroke-opacity="1" stroke-linejoin="bevel" stroke-miterlimit="10" stroke-width="10" stroke-dasharray="" clip-path="url(#zhVtFQNbsyLI)"/><path fill="none" stroke="rgb(0,103,167)" paint-order="fill" d="M 113.87073516845703 396.24163818359375 L 123.18236541748047 412.94366455078125 L 134.0757598876953 428.718505859375 L 146.45376586914062 443.42535400390625 L 160.20596313476562 456.93304443359375 L 175.20965576171875 469.1211242675781 L 191.3310089111328 479.88079833984375 L 208.4262237548828 489.1161193847656 L 226.3427734375 496.74468994140625 L 244.92086791992188 502.698486328125 L 263.9947509765625 506.92437744140625 L 283.394287109375 509.3846740722656 L 302.9464111328125 510.0574035644531 L 322.4767150878906 508.93658447265625 L 341.81097412109375 506.0322265625 L 360.7767028808594 501.3702087402344 L 379.2047424316406 494.9921569824219 L 396.9306640625 486.9549560546875 L 413.7964172363281 477.33026123046875 L 429.6514587402344 466.2039794921875" stroke-opacity="1" stroke-linejoin="bevel" stroke-miterlimit="10" stroke-width="10" stroke-dasharray="" clip-path="url(#zhVtFQNbsyLI)"/><path fill="none" stroke="rgb(225,0,209)" paint-order="fill" d="M 429.6514587402344 466.2039794921875 L 437.1553955078125 460.1082458496094 L 444.3544006347656 453.6753234863281 L 451.232421875 446.9195861816406 L 457.7740783691406 439.8561096191406 L 463.9648132324219 432.5006408691406 L 469.7908020019531 424.86956787109375 L 475.239013671875 416.9799499511719 L 480.2973327636719 408.8493957519531 L 484.9544372558594 400.49603271484375 L 489.199951171875 391.93853759765625 L 493.0244140625 383.1959228515625 L 496.4192810058594 374.28778076171875 L 499.3769836425781 365.23394775390625 L 501.8908996582031 356.05462646484375 L 503.9554138183594 346.77032470703125 L 505.56597900390625 337.4017333984375 L 506.71893310546875 327.96978759765625 L 507.4117431640625 318.4954833984375 L 507.6428527832031 309" stroke-opacity="1" stroke-linejoin="bevel" stroke-miterlimit="10" stroke-width="10" stroke-dasharray="" clip-path="url(#zhVtFQNbsyLI)"/><path fill="none" stroke="rgb(51,0,0)" paint-order="fill" d="M 93.35713958740234 309 L 99.57257843017578 308.97015380859375 L 105.53655242919922 308.8813781738281 L 111.2489242553711 308.7349548339844 L 116.70954132080078 308.5321044921875 L 121.9182357788086 308.2740173339844 L 126.87487030029297 307.9619445800781 L 131.5792694091797 307.59710693359375 L 136.03131103515625 307.18072509765625 L 140.23081970214844 306.71405029296875 L 144.17764282226562 306.1982727050781 L 147.87164306640625 305.6346740722656 L 151.31263732910156 305.0244140625 L 154.50050354003906 304.3687744140625 L 157.43507385253906 303.6689758300781 L 160.11619567871094 302.92620849609375 L 162.543701171875 302.1417236328125 L 164.71746826171875 301.3167724609375 L 166.63731384277344 300.4525146484375 L 168.3031005859375 299.5502624511719 L 169.7146759033203 298.6111755371094 L 170.87188720703125 297.6365051269531 L 171.77456665039062 296.6274719238281 L 172.4225616455078 295.5852966308594 L 172.81573486328125 294.5112609863281 L 172.95391845703125 293.4065246582031 L 172.83697509765625 292.2723388671875 L 172.46473693847656 291.10992431640625 L 171.83705139160156 289.9205322265625 L 170.9537811279297 288.7053527832031 L 169.8147430419922 287.4656677246094 L 168.41981506347656 286.20263671875 L 166.76881408691406 284.91754150390625 L 164.8616180419922 283.611572265625 L 162.6980438232422 282.28594970703125 L 160.2779541015625 280.94195556640625 L 157.6011962890625 279.5807800292969 L 154.66761779785156 278.2036437988281 L 151.47705078125 276.811767578125 L 148.02935791015625 275.40643310546875 L 144.32437133789062 273.9888000488281 L 140.36195373535156 272.56011962890625 L 136.14193725585938 271.12164306640625 L 131.66416931152344 269.674560546875 L 126.92851257324219 268.2201232910156 L 121.93479919433594 266.7595520019531 L 116.68287658691406 265.2940673828125 L 111.17259216308594 263.8249206542969 L 105.40380096435547 262.3533020019531 L 99.37633514404297 260.8804626464844 M 117.0841064453125 215.5574493408203 L 122.60189819335938 218.33480834960938 L 127.92523193359375 220.9465789794922 L 133.0533905029297 223.39378356933594 L 137.9856414794922 225.6774444580078 L 142.7212677001953 227.798583984375 L 147.25955200195312 229.75819396972656 L 151.5997772216797 231.5573272705078 L 155.74119567871094 233.19696044921875 L 159.68310546875 234.6781463623047 L 163.42477416992188 236.0018768310547 L 166.96546936035156 237.169189453125 L 170.3044891357422 238.18109130859375 L 173.4410858154297 239.03860473632812 L 176.3745574951172 239.74273681640625 L 179.1041717529297 240.2945098876953 L 181.6291961669922 240.6949462890625 L 183.9489288330078 240.94505310058594 L 186.06263732910156 241.04586791992188 L 187.96958923339844 240.99838256835938 L 189.6690673828125 240.80361938476562 L 191.16033935546875 240.46261596679688 L 192.4427032470703 239.9763641357422 L 193.5154266357422 239.3459014892578 L 194.3777618408203 238.5722198486328 L 195.02902221679688 237.6563720703125 L 195.46847534179688 236.59934997558594 L 195.69537353515625 235.4021759033203 L 195.7090301513672 234.06585693359375 L 195.50868225097656 232.5914306640625 L 195.09364318847656 230.9799041748047 L 194.46316528320312 229.2322998046875 L 193.6165313720703 227.34962463378906 L 192.55303955078125 225.33291625976562 L 191.2719268798828 223.18316650390625 L 189.77249145507812 220.90139770507812 L 188.05401611328125 218.48863220214844 L 186.1157684326172 215.94589233398438 L 183.95701599121094 213.27420043945312 L 181.57705688476562 210.47454833984375 L 178.97515869140625 207.54798889160156 L 176.1505889892578 204.49549865722656 L 173.10263061523438 201.31813049316406 L 169.83056640625 198.01687622070312 L 166.33367919921875 194.5927734375 L 162.61122131347656 191.0468292236328 L 158.6624755859375 187.38006591796875 L 154.4867401123047 183.59347534179688 L 150.08326721191406 179.6881103515625 L 145.4513397216797 175.66497802734375 M 182.82945251464844 143.52145385742188 L 186.38552856445312 148.4697723388672 L 189.8487091064453 153.18374633789062 L 193.2178497314453 157.66397094726562 L 196.4918212890625 161.91099548339844 L 199.6695098876953 165.9254150390625 L 202.74978637695312 169.7078094482422 L 205.7315216064453 173.25872802734375 L 208.61358642578125 176.57876586914062 L 211.39483642578125 179.66848754882812 L 214.0741729736328 182.52847290039062 L 216.65045166015625 185.15928649902344 L 219.12254333496094 187.5615234375 L 221.4893341064453 189.73573303222656 L 223.7496795654297 191.68251037597656 L 225.9024658203125 193.4024200439453 L 227.94656372070312 194.89602661132812 L 229.88084411621094 196.16392517089844 L 231.7041778564453 197.20668029785156 L 233.41542053222656 198.0248565673828 L 235.0134735107422 198.61904907226562 L 236.49720764160156 198.9898223876953 L 237.865478515625 199.1377410888672 L 239.11715698242188 199.0634002685547 L 240.25112915039062 198.76734924316406 L 241.26625061035156 198.25018310546875 L 242.1614227294922 197.51248168945312 L 242.9355010986328 196.55479431152344 L 243.58734130859375 195.37770080566406 L 244.1158447265625 193.98178100585938 L 244.51986694335938 192.3676300048828 L 244.79827880859375 190.53578186035156 L 244.94996643066406 188.48684692382812 L 244.9738006591797 186.22137451171875 L 244.86863708496094 183.73995971679688 L 244.63336181640625 181.0431671142578 L 244.266845703125 178.13156127929688 L 243.76797485351562 175.0057373046875 L 243.13558959960938 171.66624450683594 L 242.3685760498047 168.11367797851562 L 241.4658203125 164.34860229492188 L 240.42617797851562 160.37159729003906 L 239.24853515625 156.18324279785156 L 237.9317626953125 151.78408813476562 L 236.47471618652344 147.17474365234375 L 234.8762969970703 142.3557586669922 L 233.13534545898438 137.32769775390625 L 231.25076293945312 132.09117126464844 L 229.2213897705078 126.646728515625 L 227.04612731933594 120.99494934082031 M 275.53167724609375 109.39460754394531 L 276.3114013671875 115.38027954101562 L 277.1210632324219 121.11653900146484 L 277.9593505859375 126.60340118408203 L 278.8250427246094 131.8408660888672 L 279.716796875 136.82891845703125 L 280.6334228515625 141.56756591796875 L 281.5735778808594 146.05682373046875 L 282.5360412597656 150.2966766357422 L 283.5195007324219 154.287109375 L 284.522705078125 158.0281524658203 L 285.5443420410156 161.51979064941406 L 286.58319091796875 164.7620391845703 L 287.6379699707031 167.75486755371094 L 288.7073974609375 170.49830627441406 L 289.7901611328125 172.99232482910156 L 290.8850402832031 175.23695373535156 L 291.9907531738281 177.232177734375 L 293.10601806640625 178.97799682617188 L 294.2295227050781 180.4744110107422 L 295.3600769042969 181.72142028808594 L 296.496337890625 182.7190399169922 L 297.6370544433594 183.4672393798828 L 298.78094482421875 183.96604919433594 L 299.9267883300781 184.2154541015625 L 301.0732116699219 184.2154541015625 L 302.21905517578125 183.96604919433594 L 303.3629455566406 183.4672393798828 L 304.503662109375 182.7190399169922 L 305.6399230957031 181.72142028808594 L 306.7704772949219 180.4744110107422 L 307.89398193359375 178.97799682617188 L 309.0092468261719 177.232177734375 L 310.1149597167969 175.23695373535156 L 311.2098388671875 172.99232482910156 L 312.2926025390625 170.49830627441406 L 313.3620300292969 167.75486755371094 L 314.41680908203125 164.7620391845703 L 315.4556579589844 161.51979064941406 L 316.477294921875 158.0281524658203 L 317.4804992675781 154.287109375 L 318.4639587402344 150.2966766357422 L 319.4264221191406 146.05682373046875 L 320.3665771484375 141.56756591796875 L 321.283203125 136.82891845703125 L 322.1749572753906 131.8408660888672 L 323.0406494140625 126.60340118408203 L 323.8789367675781 121.11653900146484 L 324.6885986328125 115.38027954101562 L 325.46832275390625 109.39460754394531 M 373.953857421875 120.99494934082031 L 371.7785949707031 126.646728515625 L 369.7492370605469 132.09117126464844 L 367.8646545410156 137.32769775390625 L 366.12371826171875 142.3557586669922 L 364.5252685546875 147.17474365234375 L 363.0682373046875 151.78408813476562 L 361.75146484375 156.18324279785156 L 360.5738220214844 160.37159729003906 L 359.5341796875 164.34860229492188 L 358.63140869140625 168.11367797851562 L 357.8644104003906 171.66624450683594 L 357.2320251464844 175.0057373046875 L 356.733154296875 178.13156127929688 L 356.36663818359375 181.0431671142578 L 356.13134765625 183.73995971679688 L 356.0262145996094 186.22137451171875 L 356.0500183105469 188.48684692382812 L 356.20172119140625 190.53578186035156 L 356.4801330566406 192.3676300048828 L 356.8841552734375 193.98178100585938 L 357.41265869140625 195.37770080566406 L 358.06451416015625 196.55479431152344 L 358.83856201171875 197.51248168945312 L 359.7337341308594 198.25018310546875 L 360.7488708496094 198.76734924316406 L 361.8828430175781 199.0634002685547 L 363.134521484375 199.1377410888672 L 364.5028076171875 198.9898223876953 L 365.98651123046875 198.61904907226562 L 367.5845642089844 198.0248565673828 L 369.29583740234375 197.20668029785156 L 371.1191711425781 196.16392517089844 L 373.0534362792969 194.89602661132812 L 375.0975341796875 193.4024200439453 L 377.25030517578125 191.68251037597656 L 379.5106506347656 189.73573303222656 L 381.87744140625 187.5615234375 L 384.34954833984375 185.15928649902344 L 386.92584228515625 182.52847290039062 L 389.60516357421875 179.66848754882812 L 392.38641357421875 176.57876586914062 L 395.26849365234375 173.25872802734375 L 398.2502136230469 169.7078094482422 L 401.3304748535156 165.9254150390625 L 404.5081787109375 161.91099548339844 L 407.78216552734375 157.66397094726562 L 411.15130615234375 153.18374633789062 L 414.6144714355469 148.4697723388672 L 418.1705627441406 143.52145385742188" stroke-opacity="1" stroke-linejoin="bevel" stroke-miterlimit="10" stroke-dasharray="" clip-path="url(#AlrlXDDJhGcI)"/><path fill="none" stroke="rgb(225,0,209)" paint-order="fill" d="M 507.6428527832031 309 L 501.3988342285156 308.9172668457031 L 495.3498840332031 308.67132568359375 L 489.4972839355469 308.2655944824219 L 483.8424377441406 307.7034606933594 L 478.3866271972656 306.98834228515625 L 473.13116455078125 306.12359619140625 L 468.0774230957031 305.1126708984375 L 463.2267150878906 303.9589538574219 L 458.5803527832031 302.66583251953125 L 454.1396789550781 301.2366943359375 L 449.906005859375 299.6749572753906 L 445.8807067871094 297.9840393066406 L 442.0650634765625 296.1673278808594 L 438.4604187011719 294.2281799316406 L 435.0680847167969 292.1700744628906 L 431.8894348144531 289.996337890625 L 428.9257507324219 287.7104187011719 L 426.1783752441406 285.3157043457031 L 423.6486511230469 282.8155822753906 L 421.337890625 280.21343994140625 L 419.2474365234375 277.5127258300781 L 417.37860107421875 274.716796875 L 415.73272705078125 271.8290710449219 L 414.3111267089844 268.85296630859375 L 413.1151428222656 265.7918395996094 L 412.1460876464844 262.64910888671875 L 411.4053039550781 259.4281921386719 L 410.8941345214844 256.1324768066406 L 410.6138916015625 252.76535034179688 L 410.5658874511719 249.33023071289062 L 410.75146484375 245.83050537109375 L 411.17193603515625 242.26959228515625 L 411.82867431640625 238.65086364746094 L 412.72296142578125 234.97775268554688 L 413.85614013671875 231.25363159179688 L 415.22955322265625 227.48191833496094 L 416.8445129394531 223.66600036621094 L 418.7023620605469 219.8092803955078 L 420.8044128417969 215.9151611328125 L 423.1520080566406 211.98704528808594 L 425.7464599609375 208.0283203125 L 428.589111328125 204.0424041748047 L 431.6812744140625 200.03268432617188 L 435.0242919921875 196.0025634765625 L 438.6195068359375 191.9554443359375 L 442.46820068359375 187.8947296142578 L 446.5717468261719 183.82382202148438 L 450.93145751953125 179.74609375 L 455.54864501953125 175.66497802734375 M 498.4400939941406 368.266845703125 L 492.4953308105469 366.39483642578125 L 486.7801513671875 364.4099426269531 L 481.29486083984375 362.31610107421875 L 476.03985595703125 360.1171875 L 471.0155334472656 357.81707763671875 L 466.2221984863281 355.4197082519531 L 461.6603088378906 352.9289245605469 L 457.33013916015625 350.3486633300781 L 453.23211669921875 347.68280029296875 L 449.36663818359375 344.9352111816406 L 445.7340087890625 342.10980224609375 L 442.3346252441406 339.21051025390625 L 439.1688537597656 336.24114990234375 L 436.2370910644531 333.2056884765625 L 433.5396728515625 330.10797119140625 L 431.0769958496094 326.9519348144531 L 428.8493957519531 323.7414245605469 L 426.8572998046875 320.4803466796875 L 425.10101318359375 317.1726379394531 L 423.5809631347656 313.8221435546875 L 422.2974853515625 310.4327697753906 L 421.2509765625 307.0084228515625 L 420.4417724609375 303.5530090332031 L 419.8702392578125 300.07037353515625 L 419.53680419921875 296.564453125 L 419.4417724609375 293.03912353515625 L 419.5855712890625 289.498291015625 L 419.9685363769531 285.94586181640625 L 420.5910339355469 282.38568115234375 L 421.4534606933594 278.8216857910156 L 422.5561828613281 275.25775146484375 L 423.8995361328125 271.6977844238281 L 425.4839172363281 268.1456604003906 L 427.3097229003906 264.60528564453125 L 429.37725830078125 261.08056640625 L 431.68695068359375 257.5753479003906 L 434.2391357421875 254.09359741210938 L 437.0342102050781 250.63916015625 L 440.0725402832031 247.2159423828125 L 443.3544921875 243.8278350830078 L 446.8804016113281 240.47872924804688 L 450.65069580078125 237.1725311279297 L 454.66571044921875 233.9131317138672 L 458.92584228515625 230.70440673828125 L 463.4314270019531 227.55027770996094 L 468.182861328125 224.45462036132812 L 473.1805114746094 221.4213409423828 L 478.4247131347656 218.45431518554688 L 483.9158935546875 215.5574493408203" stroke-opacity="1" stroke-linejoin="bevel" stroke-miterlimit="10" stroke-dasharray="" clip-path="url(#AlrlXDDJhGcI)"/><path fill="none" stroke="rgb(80,66,0)" paint-order="fill" d="M 113.87073516845703 396.24163818359375 L 119.45455169677734 393.5713195800781 L 124.78007507324219 390.90325927734375 L 129.8478240966797 388.2396545410156 L 134.65830993652344 385.58270263671875 L 139.2120819091797 382.9346618652344 L 143.5096435546875 380.2977294921875 L 147.551513671875 377.6741638183594 L 151.33824157714844 375.066162109375 L 154.8703155517578 372.4759521484375 L 158.14828491210938 369.90576171875 L 161.17266845703125 367.35784912109375 L 163.94398498535156 364.8343811035156 L 166.46275329589844 362.3376159667969 L 168.7294921875 359.8697509765625 L 170.7447509765625 357.43304443359375 L 172.509033203125 355.02972412109375 L 174.02285766601562 352.6619567871094 L 175.28675842285156 350.33203125 L 176.30123901367188 348.04217529296875 L 177.0668487548828 345.7945556640625 L 177.5841064453125 343.5914306640625 L 177.853515625 341.4350280761719 L 177.87562561035156 339.32757568359375 L 177.65093994140625 337.2712707519531 L 177.1799774169922 335.26837158203125 L 176.46328735351562 333.3210754394531 L 175.50137329101562 331.431640625 L 174.2947540283203 329.6022644042969 L 172.84396362304688 327.83514404296875 L 171.14952087402344 326.132568359375 L 169.2119598388672 324.4967346191406 L 167.0317840576172 322.92987060546875 L 164.60952758789062 321.4341735839844 L 161.94570922851562 320.01190185546875 L 159.04086303710938 318.6652526855469 L 155.8955078125 317.396484375 L 152.51014709472656 316.2077941894531 L 148.8853302001953 315.1014099121094 L 145.02157592773438 314.0795593261719 L 140.9193878173828 313.14447021484375 L 136.57931518554688 312.2983703613281 L 132.00186157226562 311.5434875488281 L 127.18754577636719 310.88201904296875 L 122.13691711425781 310.31622314453125 L 116.85047912597656 309.84832763671875 L 111.3287582397461 309.48052978515625 L 105.57228088378906 309.2150573730469 L 99.5815658569336 309.05413818359375 L 93.35713958740234 309" stroke-opacity="1" stroke-linejoin="bevel" stroke-miterlimit="10" stroke-dasharray="" clip-path="url(#AlrlXDDJhGcI)"/><path fill="none" stroke="rgb(0,103,167)" paint-order="fill" d="M 429.6514587402344 466.2039794921875 L 425.75042724609375 461.50634765625 L 421.9552917480469 457.0378112792969 L 418.2672424316406 452.797607421875 L 414.68743896484375 448.7851257324219 L 411.2170104980469 444.9996337890625 L 407.8571472167969 441.44049072265625 L 404.60894775390625 438.10699462890625 L 401.4736328125 434.99847412109375 L 398.4523010253906 432.1142272949219 L 395.546142578125 429.45361328125 L 392.7563171386719 427.01593017578125 L 390.0839538574219 424.8005065917969 L 387.53021240234375 422.8066711425781 L 385.09625244140625 421.03369140625 L 382.7832336425781 419.48095703125 L 380.5923156738281 418.14776611328125 L 378.524658203125 417.0334167480469 L 376.5813903808594 416.1372375488281 L 374.763671875 415.45855712890625 L 373.07269287109375 414.9967041015625 L 371.50958251953125 414.7509765625 L 370.0754699707031 414.720703125 L 368.7715759277344 414.90521240234375 L 367.5989990234375 415.3038330078125 L 366.5589294433594 415.91583251953125 L 365.6524658203125 416.7406005859375 L 364.880859375 417.7774353027344 L 364.24517822265625 419.025634765625 L 363.7466125488281 420.4845275878906 L 363.3863220214844 422.1534423828125 L 363.1654357910156 424.03167724609375 L 363.08514404296875 426.11859130859375 L 363.1465759277344 428.4134826660156 L 363.35089111328125 430.9156799316406 L 363.69927978515625 433.6244812011719 L 364.1928405761719 436.53924560546875 L 364.832763671875 439.6592712402344 L 365.6202087402344 442.9838562011719 L 366.5563049316406 446.5123291015625 L 367.6422119140625 450.2440490722656 L 368.8791198730469 454.1783142089844 L 370.26812744140625 458.3144226074219 L 371.8104248046875 462.6517333984375 L 373.5072021484375 467.18951416015625 L 375.3595275878906 471.9271545410156 L 377.3686218261719 476.8638916015625 L 379.53564453125 481.9991455078125 L 381.8616943359375 487.3321533203125 L 384.3479919433594 492.86224365234375 M 333.5599670410156 507.4940490722656 L 332.5357360839844 501.542724609375 L 331.4880065917969 495.8414306640625 L 330.4180908203125 490.39013671875 L 329.327392578125 485.1888122558594 L 328.2172546386719 480.23736572265625 L 327.0889892578125 475.5357666015625 L 325.9440002441406 471.0840148925781 L 324.7835998535156 466.8820495605469 L 323.609130859375 462.9297790527344 L 322.4219665527344 459.22723388671875 L 321.2234802246094 455.77435302734375 L 320.01495361328125 452.5710754394531 L 318.79779052734375 449.61737060546875 L 317.5733337402344 446.9131774902344 L 316.3429260253906 444.4584655761719 L 315.1079406738281 442.2532043457031 L 313.8696594238281 440.29736328125 L 312.6295166015625 438.5908508300781 L 311.3888244628906 437.1336669921875 L 310.14892578125 435.92578125 L 308.9111633300781 434.96710205078125 L 307.6769104003906 434.25762939453125 L 306.447509765625 433.79730224609375 L 305.22430419921875 433.5860595703125 L 304.0086669921875 433.6239013671875 L 302.80194091796875 433.9107666015625 L 301.6054382324219 434.4466247558594 L 300.4205627441406 435.2314147949219 L 299.2486267089844 436.26507568359375 L 298.09100341796875 437.547607421875 L 296.94903564453125 439.0789794921875 L 295.8240661621094 440.85906982421875 L 294.7174377441406 442.887939453125 L 293.6305236816406 445.16546630859375 L 292.5646667480469 447.691650390625 L 291.5212097167969 450.4664306640625 L 290.50152587890625 453.4897766113281 L 289.5069274902344 456.7616271972656 L 288.5387878417969 460.2819519042969 L 287.59844970703125 464.0507507324219 L 286.6872863769531 468.0679016113281 L 285.8066101074219 472.3334045410156 L 284.9577941894531 476.84722900390625 L 284.1421813964844 481.60931396484375 L 283.36114501953125 486.61962890625 L 282.6159973144531 491.8781433105469 L 281.9081115722656 497.384765625 L 281.23883056640625 503.1394958496094 L 280.6095275878906 509.1423034667969 M 228.96009826660156 497.6991882324219 L 231.0762481689453 492.02581787109375 L 233.0455322265625 486.55908203125 L 234.869140625 481.2996520996094 L 236.54824829101562 476.2480773925781 L 238.08409118652344 471.4049987792969 L 239.4778289794922 466.77099609375 L 240.73069763183594 462.3466796875 L 241.84385681152344 458.1326904296875 L 242.8185272216797 454.12957763671875 L 243.65589904785156 450.3380126953125 L 244.357177734375 446.758544921875 L 244.92355346679688 443.3918151855469 L 245.35623168945312 440.2384033203125 L 245.65640258789062 437.2989501953125 L 245.82525634765625 434.57403564453125 L 245.86399841308594 432.06427001953125 L 245.7738494873047 429.7702941894531 L 245.55596923828125 427.6926574707031 L 245.21157836914062 425.8320007324219 L 244.7418670654297 424.18890380859375 L 244.1480255126953 422.7640075683594 L 243.4312744140625 421.55792236328125 L 242.59278869628906 420.57122802734375 L 241.63377380371094 419.8045349121094 L 240.55543518066406 419.2584533691406 L 239.35894775390625 418.93359375 L 238.04554748535156 418.8305358886719 L 236.61639404296875 418.949951171875 L 235.0727081298828 419.2923889160156 L 233.41567993164062 419.85845947265625 L 231.64649963378906 420.6487731933594 L 229.76638793945312 421.6639709472656 L 227.77651977539062 422.9046325683594 L 225.6781005859375 424.371337890625 L 223.47232055664062 426.06475830078125 L 221.160400390625 427.9854431152344 L 218.74351501464844 430.1340026855469 L 216.22286987304688 432.5110778808594 L 213.5996551513672 435.1172790527344 L 210.8750762939453 437.9531555175781 L 208.0503387451172 441.0193786621094 L 205.1266326904297 444.3164978027344 L 202.1051483154297 447.84515380859375 L 198.98709106445312 451.60595703125 L 195.77365112304688 455.5994873046875 L 192.46604919433594 459.8263854980469 L 189.06546020507812 464.2872314453125 L 185.5730743408203 468.9826354980469 L 181.99012756347656 473.9132080078125 M 142.77191162109375 439.3402099609375 L 147.4838409423828 435.4048767089844 L 151.9633331298828 431.5796813964844 L 156.2111053466797 427.86566162109375 L 160.2279052734375 424.2639465332031 L 164.0144500732422 420.7756652832031 L 167.57150268554688 417.40185546875 L 170.8997802734375 414.1436462402344 L 174.00001525878906 411.00213623046875 L 176.8729705810547 407.97845458984375 L 179.51937866210938 405.0736389160156 L 181.93995666503906 402.288818359375 L 184.1354522705078 399.6251220703125 L 186.10659790039062 397.0835876464844 L 187.85414123535156 394.6653747558594 L 189.37881469726562 392.3715515136719 L 190.68133544921875 390.20318603515625 L 191.76248168945312 388.16143798828125 L 192.62295532226562 386.24737548828125 L 193.2635040283203 384.4621276855469 L 193.6848602294922 382.8067321777344 L 193.88778686523438 381.2823181152344 L 193.87298583984375 379.8900146484375 L 193.64120483398438 378.6308898925781 L 193.1931915283203 377.50604248046875 L 192.52967834472656 376.5165710449219 L 191.65139770507812 375.6636047363281 L 190.55908203125 374.9482116699219 L 189.25347900390625 374.3714904785156 L 187.73532104492188 373.9345397949219 L 186.00535583496094 373.6384582519531 L 184.06430053710938 373.484375 L 181.91290283203125 373.4733581542969 L 179.55189514160156 373.6065368652344 L 176.98202514648438 373.8849792480469 L 174.2040252685547 374.3097839355469 L 171.2186279296875 374.8820495605469 L 168.0265655517578 375.6029052734375 L 164.6285858154297 376.4734191894531 L 161.02542114257812 377.4947204589844 L 157.21780395507812 378.6678771972656 L 153.20648193359375 379.9939880371094 L 148.99217224121094 381.47418212890625 L 144.5756378173828 383.1095275878906 L 139.95761108398438 384.901123046875 L 135.13880920410156 386.85009765625 L 130.1199951171875 388.9575500488281 L 124.9018783569336 391.22454833984375 L 119.48521423339844 393.6522216796875 L 113.87073516845703 396.24163818359375" stroke-opacity="1" stroke-linejoin="bevel" stroke-miterlimit="10" stroke-dasharray="" clip-path="url(#AlrlXDDJhGcI)"/><path fill="none" stroke="rgb(51,0,0)" paint-order="fill" d="M 501.6236572265625 260.8804626464844 L 495.5738525390625 262.423583984375 L 489.7386779785156 264.1041259765625 L 484.1188659667969 265.9179382324219 L 478.7152099609375 267.8609619140625 L 473.5284423828125 269.92901611328125 L 468.5593566894531 272.1180419921875 L 463.8086853027344 274.42388916015625 L 459.2772521972656 276.84246826171875 L 454.9657287597656 279.3696594238281 L 450.8749694824219 282.0013122558594 L 447.00567626953125 284.7333679199219 L 443.3586730957031 287.5616455078125 L 439.9346618652344 290.4820861816406 L 436.73443603515625 293.49053955078125 L 433.7587585449219 296.5829162597656 L 431.0083923339844 299.7550964355469 L 428.484130859375 303.0029602050781 L 426.1866760253906 306.3223571777344 L 424.1168518066406 309.709228515625 L 422.275390625 313.159423828125 L 420.6630554199219 316.6688537597656 L 419.2806091308594 320.2333679199219 L 418.12884521484375 323.848876953125 L 417.20849609375 327.5112609863281 L 416.5203552246094 331.2164306640625 L 416.0651550292969 334.960205078125 L 415.84368896484375 338.738525390625 L 415.856689453125 342.5472412109375 L 416.1049499511719 346.38226318359375 L 416.5892028808594 350.2394714355469 L 417.3102722167969 354.11474609375 L 418.26885986328125 358.00396728515625 L 419.46575927734375 361.9030456542969 L 420.9017333984375 365.8078308105469 L 422.5775146484375 369.7142028808594 L 424.4939270019531 373.6180725097656 L 426.6517028808594 377.51531982421875 L 429.05157470703125 381.4018249511719 L 431.6943664550781 385.27349853515625 L 434.580810546875 389.12615966796875 L 437.711669921875 392.9557800292969 L 441.0877380371094 396.7581481933594 L 444.709716796875 400.52923583984375 L 448.57843017578125 404.2648620605469 L 452.69464111328125 407.9609680175781 L 457.0590515136719 411.6134033203125 L 461.6725158691406 415.2180480957031 L 466.53570556640625 418.77081298828125 L 471.64947509765625 422.267578125 M 507.6428527832031 309 L 501.3827819824219 309.0975341796875 L 495.2860412597656 309.38751220703125 L 489.3546447753906 309.8658752441406 L 483.5906066894531 310.52862548828125 L 477.99591064453125 311.37176513671875 L 472.572509765625 312.39129638671875 L 467.3224182128906 313.5832214355469 L 462.24761962890625 314.9434814453125 L 457.35009765625 316.46807861328125 L 452.6318359375 318.1530456542969 L 448.0948486328125 319.9943542480469 L 443.7411193847656 321.98797607421875 L 439.5726013183594 324.1299133300781 L 435.5913391113281 326.41619873046875 L 431.79925537109375 328.8427429199219 L 428.1983947753906 331.4056091308594 L 424.7907409667969 334.1007385253906 L 421.5782470703125 336.9241638183594 L 418.56292724609375 339.871826171875 L 415.7467956542969 342.9397888183594 L 413.13177490234375 346.12396240234375 L 410.7198791503906 349.42041015625 L 408.5131530761719 352.8250732421875 L 406.51348876953125 356.3339538574219 L 404.72296142578125 359.9430847167969 L 403.1435241699219 363.64837646484375 L 401.77716064453125 367.4458923339844 L 400.6258544921875 371.33160400390625 L 399.6916198730469 375.3014831542969 L 398.9764099121094 379.3515625 L 398.4822692871094 383.477783203125 L 398.21112060546875 387.6761474609375 L 398.1650085449219 391.9426574707031 L 398.34588623046875 396.2733459472656 L 398.7557373046875 400.66412353515625 L 399.3965759277344 405.11102294921875 L 400.2703857421875 409.6100769042969 L 401.379150390625 414.1571960449219 L 402.7248840332031 418.7484130859375 L 404.30950927734375 423.3797302246094 L 406.1351013183594 428.047119140625 L 408.20355224609375 432.74658203125 L 410.5169372558594 437.4740905761719 L 413.07720947265625 442.22564697265625 L 415.8863525390625 446.99725341796875 L 418.94635009765625 451.784912109375 L 422.25921630859375 456.5845947265625 L 425.8269348144531 461.39227294921875 L 429.6514587402344 466.2039794921875" stroke-opacity="1" stroke-linejoin="bevel" stroke-miterlimit="10" stroke-dasharray="" clip-path="url(#AlrlXDDJhGcI)"/><path fill="rgb(51,0,0)" stroke="rgb(0,0,0)" paint-order="fill" d="M 308 107.92857360839844 A 7.5 7.5 0 0 1 293 107.92857360839844 A 7.5 7.5 0 0 1 308 107.92857360839844" fill-opacity="1" clip-path="url(#AlrlXDDJhGcI)" stroke-opacity="1" stroke-linejoin="bevel" stroke-miterlimit="10" stroke-dasharray=""/><path fill="rgb(80,66,0)" stroke="rgb(0,0,0)" paint-order="fill" d="M 106.05064392089844 353.74261474609375 A 7.5 7.5 0 0 1 91.05064392089844 353.74261474609375 A 7.5 7.5 0 0 1 106.05064392089844 353.74261474609375" fill-opacity="1" clip-path="url(#AlrlXDDJhGcI)" stroke-opacity="1" stroke-linejoin="bevel" stroke-miterlimit="10" stroke-dasharray=""/><path fill="rgb(0,103,167)" stroke="rgb(0,0,0)" paint-order="fill" d="M 261.9063720703125 505.0301513671875 A 7.5 7.5 0 0 1 246.9063720703125 505.0301513671875 A 7.5 7.5 0 0 1 261.9063720703125 505.0301513671875" fill-opacity="1" clip-path="url(#AlrlXDDJhGcI)" stroke-opacity="1" stroke-linejoin="bevel" stroke-miterlimit="10" stroke-dasharray=""/><path fill="rgb(225,0,209)" stroke="rgb(0,0,0)" paint-order="fill" d="M 494.6292724609375 396.24163818359375 A 7.5 7.5 0 0 1 479.6292724609375 396.24163818359375 A 7.5 7.5 0 0 1 494.6292724609375 396.24163818359375" fill-opacity="1" clip-path="url(#AlrlXDDJhGcI)" stroke-opacity="1" stroke-linejoin="bevel" stroke-miterlimit="10" stroke-dasharray=""/><g clip-path="url(#PeVEobqyroKf)"><text fill="rgb(0,0,0)" stroke="none" font-family="helvetica" font-size="8pt" font-style="normal" font-weight="normal" text-decoration="normal" x="0" y="0" text-anchor="start" dominant-baseline="central" transform="matrix(-4.371139000186241e-8, -0.999999999999999, 0.999999999999999, -4.371139000186241e-8, 300.5, 97.875)" fill-opacity="1">B</text></g><g clip-path="url(#PeVEobqyroKf)"><text fill="rgb(0,0,0)" stroke="none" font-family="helvetica" font-size="8pt" font-style="normal" font-weight="normal" text-decoration="normal" x="0" y="0" text-anchor="start" dominant-baseline="central" transform="matrix(-0.9749279112981492, 0.22252093782794502, -0.22252093782794502, -0.9749279112981492, 88.45317840576172, 355.979736328125)" fill-opacity="1">CAF</text></g><g clip-path="url(#PeVEobqyroKf)"><text fill="rgb(0,0,0)" stroke="none" font-family="helvetica" font-size="8pt" font-style="normal" font-weight="normal" text-decoration="normal" x="0" y="0" text-anchor="start" dominant-baseline="central" transform="matrix(-0.2225209494538438, 0.9749279086446135, -0.9749279086446135, -0.2225209494538438, 252.10169982910156, 514.8316650390625)" fill-opacity="1">Melanoma or unclassified</text></g><g clip-path="url(#PeVEobqyroKf)"><text fill="rgb(0,0,0)" stroke="none" font-family="helvetica" font-size="8pt" font-style="normal" font-weight="normal" text-decoration="normal" x="0" y="0" text-anchor="start" dominant-baseline="central" transform="matrix(0.9009688661781567, 0.4338837426980258, -0.4338837426980258, 0.9009688661781567, 496.4607238769531, 400.60369873046875)" fill-opacity="1">T</text></g><text fill="rgb(68,68,68)" stroke="none" font-family="helvetica" font-size="13px" font-style="normal" font-weight="bold" text-decoration="normal" x="10" y="19" text-anchor="start" dominant-baseline="alphabetic" transform="matrix(1, 0, 0, 1, 0.5, 0.5)" fill-opacity="1">Cell_type_interactions_between_all_identified_pairs</text></g></g></svg>